<?plantuml 1.2026.2beta3?><svg xmlns="http://www.w3.org/2000/svg" xmlns:xlink="http://www.w3.org/1999/xlink" contentStyleType="text/css" data-diagram-type="SEQUENCE" height="1249px" preserveAspectRatio="none" style="width:799px;height:1249px;background:#FFFFFF;" version="1.1" viewBox="0 0 799 1249" width="799px" zoomAndPan="magnify"><title>&lt;u&gt;System Sequence Diagram&lt;/u&gt;
Advertiser Publish Ad Campaign</title><defs/><g><text fill="#000000" font-family="sans-serif" font-size="14" font-weight="bold" lengthAdjust="spacing" text-decoration="underline" textLength="211.7158" x="292.8242" y="27.9951">System Sequence Diagram</text><text fill="#000000" font-family="sans-serif" font-size="14" font-weight="bold" lengthAdjust="spacing" textLength="254.7959" x="271.2842" y="44.292">Advertiser Publish Ad Campaign</text><rect fill="none" height="90.2031" style="stroke:#000000;stroke-width:1.5;" width="503.1362" x="10" y="313.3281"/><rect fill="none" height="90.2031" style="stroke:#000000;stroke-width:1.5;" width="503.1362" x="10" y="542.3281"/><rect fill="none" height="90.2031" style="stroke:#000000;stroke-width:1.5;" width="503.1362" x="10" y="907.4688"/><g class="participant-lifeline" data-entity-uid="part1" data-qualified-name="Advertiser" id="part1-lifeline"><g><title>Advertiser</title><rect fill="#000000" fill-opacity="0.00000" height="1033.7109" width="8" x="55.0801" y="134.8906"/><line style="stroke:#181818;stroke-width:0.5;stroke-dasharray:5,5;" x1="59" x2="59" y1="134.8906" y2="1168.6016"/></g></g><g class="participant-lifeline" data-entity-uid="part2" data-qualified-name="System" id="part2-lifeline"><g><title>System</title><rect fill="#000000" fill-opacity="0.00000" height="1033.7109" width="8" x="466.0332" y="134.8906"/><line style="stroke:#181818;stroke-width:0.5;stroke-dasharray:5,5;" x1="469.9302" x2="469.9302" y1="134.8906" y2="1168.6016"/></g></g><g class="participant-lifeline" data-entity-uid="part3" data-qualified-name="MediaOwner" id="part3-lifeline"><g><title>Media Owner</title><rect fill="#000000" fill-opacity="0.00000" height="1033.7109" width="8" x="606.2939" y="134.8906"/><line style="stroke:#181818;stroke-width:0.5;stroke-dasharray:5,5;" x1="610.189" x2="610.189" y1="134.8906" y2="1168.6016"/></g></g><g class="participant-lifeline" data-entity-uid="part4" data-qualified-name="GmailAPI" id="part4-lifeline"><g><title>..external..</title><rect fill="#000000" fill-opacity="0.00000" height="1033.7109" width="8" x="740.7368" y="134.8906"/><line style="stroke:#181818;stroke-width:0.5;stroke-dasharray:5,5;" x1="744.1094" x2="744.1094" y1="134.8906" y2="1168.6016"/></g></g><g class="participant participant-head" data-entity-uid="part1" data-qualified-name="Advertiser" id="part1-head"><text fill="#000000" font-family="sans-serif" font-size="14" lengthAdjust="spacing" textLength="72.1602" x="20" y="131.5889">Advertiser</text><ellipse cx="59.0801" cy="67.0938" fill="#E2E2F0" rx="8" ry="8" style="stroke:#181818;stroke-width:0.5;"/><path d="M59.0801,75.0938 L59.0801,102.0938 M46.0801,83.0938 L72.0801,83.0938 M59.0801,102.0938 L46.0801,117.0938 M59.0801,102.0938 L72.0801,117.0938" fill="none" style="stroke:#181818;stroke-width:0.5;"/></g><g class="participant participant-tail" data-entity-uid="part1" data-qualified-name="Advertiser" id="part1-tail"><text fill="#000000" font-family="sans-serif" font-size="14" lengthAdjust="spacing" textLength="72.1602" x="20" y="1180.5967">Advertiser</text><ellipse cx="59.0801" cy="1192.3984" fill="#E2E2F0" rx="8" ry="8" style="stroke:#181818;stroke-width:0.5;"/><path d="M59.0801,1200.3984 L59.0801,1227.3984 M46.0801,1208.3984 L72.0801,1208.3984 M59.0801,1227.3984 L46.0801,1242.3984 M59.0801,1227.3984 L72.0801,1242.3984" fill="none" style="stroke:#181818;stroke-width:0.5;"/></g><g class="participant participant-head" data-entity-uid="part2" data-qualified-name="System" id="part2-head"><rect fill="#E2E2F0" height="30.2969" rx="2.5" ry="2.5" style="stroke:#181818;stroke-width:0.5;" width="66.2061" x="436.9302" y="103.5938"/><text fill="#000000" font-family="sans-serif" font-size="14" lengthAdjust="spacing" textLength="52.2061" x="443.9302" y="123.5889">System</text></g><g class="participant participant-tail" data-entity-uid="part2" data-qualified-name="System" id="part2-tail"><rect fill="#E2E2F0" height="30.2969" rx="2.5" ry="2.5" style="stroke:#181818;stroke-width:0.5;" width="66.2061" x="436.9302" y="1167.6016"/><text fill="#000000" font-family="sans-serif" font-size="14" lengthAdjust="spacing" textLength="52.2061" x="443.9302" y="1187.5967">System</text></g><g class="participant participant-head" data-entity-uid="part3" data-qualified-name="MediaOwner" id="part3-head"><text fill="#000000" font-family="sans-serif" font-size="14" lengthAdjust="spacing" textLength="92.21" x="561.189" y="131.5889">Media Owner</text><ellipse cx="610.2939" cy="67.0938" fill="#E2E2F0" rx="8" ry="8" style="stroke:#181818;stroke-width:0.5;"/><path d="M610.2939,75.0938 L610.2939,102.0938 M597.2939,83.0938 L623.2939,83.0938 M610.2939,102.0938 L597.2939,117.0938 M610.2939,102.0938 L623.2939,117.0938" fill="none" style="stroke:#181818;stroke-width:0.5;"/></g><g class="participant participant-tail" data-entity-uid="part3" data-qualified-name="MediaOwner" id="part3-tail"><text fill="#000000" font-family="sans-serif" font-size="14" lengthAdjust="spacing" textLength="92.21" x="561.189" y="1180.5967">Media Owner</text><ellipse cx="610.2939" cy="1192.3984" fill="#E2E2F0" rx="8" ry="8" style="stroke:#181818;stroke-width:0.5;"/><path d="M610.2939,1200.3984 L610.2939,1227.3984 M597.2939,1208.3984 L623.2939,1208.3984 M610.2939,1227.3984 L597.2939,1242.3984 M610.2939,1227.3984 L623.2939,1242.3984" fill="none" style="stroke:#181818;stroke-width:0.5;"/></g><g class="participant participant-head" data-entity-uid="part4" data-qualified-name="GmailAPI" id="part4-head"><rect fill="#E2E2F0" height="46.5938" rx="2.5" ry="2.5" style="stroke:#181818;stroke-width:0.5;" width="97.2549" x="696.1094" y="87.2969"/><text fill="#000000" font-family="sans-serif" font-size="14" lengthAdjust="spacing" textLength="75.2295" x="707.1221" y="107.292">&#171;external&#187;</text><text fill="#000000" font-family="sans-serif" font-size="14" lengthAdjust="spacing" textLength="83.2549" x="703.1094" y="123.5889">Gmail SMTP</text></g><g class="participant participant-tail" data-entity-uid="part4" data-qualified-name="GmailAPI" id="part4-tail"><rect fill="#E2E2F0" height="46.5938" rx="2.5" ry="2.5" style="stroke:#181818;stroke-width:0.5;" width="97.2549" x="696.1094" y="1167.6016"/><text fill="#000000" font-family="sans-serif" font-size="14" lengthAdjust="spacing" textLength="75.2295" x="707.1221" y="1187.5967">&#171;external&#187;</text><text fill="#000000" font-family="sans-serif" font-size="14" lengthAdjust="spacing" textLength="83.2549" x="703.1094" y="1203.8936">Gmail SMTP</text></g><rect fill="none" height="39.1016" style="stroke:#000000;stroke-width:1.5;" width="489.1362" x="17" y="144.8906"/><path d="M17,144.8906 L82,144.8906 L82,151.8906 L72,161.8906 L17,161.8906 L17,144.8906" fill="#EEEEEE" style="stroke:#000000;stroke-width:2;"/><text fill="#000000" font-family="sans-serif" font-size="13" font-weight="bold" lengthAdjust="spacing" textLength="20.8838" x="30" y="158.9575">ref</text><text fill="#000000" font-family="sans-serif" font-size="12" font-style="italic" lengthAdjust="spacing" textLength="209.2617" x="156.9373" y="177.0293">UC- Create Ad Campaign Use Case</text><rect fill="none" height="39.1016" style="stroke:#000000;stroke-width:1.5;" width="489.1362" x="17" y="188.9922"/><path d="M17,188.9922 L82,188.9922 L82,195.9922 L72,205.9922 L17,205.9922 L17,188.9922" fill="#EEEEEE" style="stroke:#000000;stroke-width:2;"/><text fill="#000000" font-family="sans-serif" font-size="13" font-weight="bold" lengthAdjust="spacing" textLength="20.8838" x="30" y="203.0591">ref</text><text fill="#000000" font-family="sans-serif" font-size="12" font-style="italic" lengthAdjust="spacing" textLength="168.5332" x="177.3015" y="221.1309">UC- Browse Media Use Case</text><rect fill="none" height="39.1016" style="stroke:#000000;stroke-width:1.5;" width="489.1362" x="17" y="233.0938"/><path d="M17,233.0938 L82,233.0938 L82,240.0938 L72,250.0938 L17,250.0938 L17,233.0938" fill="#EEEEEE" style="stroke:#000000;stroke-width:2;"/><text fill="#000000" font-family="sans-serif" font-size="13" font-weight="bold" lengthAdjust="spacing" textLength="20.8838" x="30" y="247.1606">ref</text><text fill="#000000" font-family="sans-serif" font-size="12" font-style="italic" lengthAdjust="spacing" textLength="242.0801" x="140.5281" y="265.2324">UC- View Media Listing Details Use Case</text><g class="message" data-entity-1="part1" data-entity-2="part2" id="msg1"><polygon fill="#181818" points="458.0332,294.3281,468.0332,298.3281,458.0332,302.3281,462.0332,298.3281" style="stroke:#181818;stroke-width:1;"/><line style="stroke:#181818;stroke-width:1;" x1="59.0801" x2="464.0332" y1="298.3281" y2="298.3281"/><text fill="#000000" font-family="sans-serif" font-size="13" lengthAdjust="spacing" textLength="386.9531" x="66.0801" y="293.2622">reserveMedia(mediaId, adCampaignId, startDate, endDate)</text></g><path d="M10,313.3281 L74.4429,313.3281 L74.4429,320.4609 L64.4429,330.4609 L10,330.4609 L10,313.3281" fill="#EEEEEE" style="stroke:#000000;stroke-width:1.5;"/><rect fill="none" height="90.2031" style="stroke:#000000;stroke-width:1.5;" width="503.1362" x="10" y="313.3281"/><text fill="#000000" font-family="sans-serif" font-size="13" font-weight="bold" lengthAdjust="spacing" textLength="19.4429" x="25" y="326.395">alt</text><text fill="#000000" font-family="sans-serif" font-size="11" font-weight="bold" lengthAdjust="spacing" textLength="133.8369" x="89.4429" y="325.5386">[Validation succeeds]</text><g class="message" data-entity-1="part2" data-entity-2="part1" id="msg2"><polygon fill="#181818" points="70.0801,347.5938,60.0801,351.5938,70.0801,355.5938,66.0801,351.5938" style="stroke:#181818;stroke-width:1;"/><line style="stroke:#181818;stroke-width:1;stroke-dasharray:2,2;" x1="64.0801" x2="469.0332" y1="351.5938" y2="351.5938"/><text fill="#000000" font-family="sans-serif" font-size="13" lengthAdjust="spacing" textLength="119.0884" x="76.0801" y="346.5278">reservationDetails</text></g><line style="stroke:#000000;stroke-width:1;stroke-dasharray:2,2;" x1="10" x2="513.1362" y1="360.5938" y2="360.5938"/><text fill="#000000" font-family="sans-serif" font-size="11" font-weight="bold" lengthAdjust="spacing" textLength="103.3721" x="15" y="370.8042">[Validation fails]</text><g class="message" data-entity-1="part2" data-entity-2="part1" id="msg3"><polygon fill="#181818" points="70.0801,391.5313,60.0801,395.5313,70.0801,399.5313,66.0801,395.5313" style="stroke:#181818;stroke-width:1;"/><line style="stroke:#181818;stroke-width:1;stroke-dasharray:2,2;" x1="64.0801" x2="469.0332" y1="395.5313" y2="395.5313"/><text fill="#000000" font-family="sans-serif" font-size="13" lengthAdjust="spacing" textLength="96.2051" x="76.0801" y="390.4653">validationError</text></g><path d="M261,415.5313 L261,500.5313 L464,500.5313 L464,425.5313 L454,415.5313 L261,415.5313" fill="#FEFFDD" style="stroke:#181818;stroke-width:0.5;"/><path d="M454,415.5313 L454,425.5313 L464,425.5313 L454,415.5313" fill="#FEFFDD" style="stroke:#181818;stroke-width:0.5;"/><text fill="#000000" font-family="sans-serif" font-size="13" lengthAdjust="spacing" textLength="182.6284" x="267" y="432.5981">reservationDetails contains:</text><text fill="#000000" font-family="sans-serif" font-size="13" lengthAdjust="spacing" textLength="61.4009" x="267" y="447.731">- mediaId</text><text fill="#000000" font-family="sans-serif" font-size="13" lengthAdjust="spacing" textLength="85.0078" x="267" y="462.8638">- campaignId</text><text fill="#000000" font-family="sans-serif" font-size="13" lengthAdjust="spacing" textLength="70.1733" x="267" y="477.9966">- startDate</text><text fill="#000000" font-family="sans-serif" font-size="13" lengthAdjust="spacing" textLength="64.3843" x="267" y="493.1294">- endDate</text><g class="message" data-entity-1="part1" data-entity-2="part2" id="msg4"><polygon fill="#181818" points="458.0332,523.3281,468.0332,527.3281,458.0332,531.3281,462.0332,527.3281" style="stroke:#181818;stroke-width:1;"/><line style="stroke:#181818;stroke-width:1;" x1="59.0801" x2="464.0332" y1="527.3281" y2="527.3281"/><text fill="#000000" font-family="sans-serif" font-size="13" lengthAdjust="spacing" textLength="137.3887" x="66.0801" y="522.2622">confirmReservation()</text></g><path d="M10,542.3281 L74.4429,542.3281 L74.4429,549.4609 L64.4429,559.4609 L10,559.4609 L10,542.3281" fill="#EEEEEE" style="stroke:#000000;stroke-width:1.5;"/><rect fill="none" height="90.2031" style="stroke:#000000;stroke-width:1.5;" width="503.1362" x="10" y="542.3281"/><text fill="#000000" font-family="sans-serif" font-size="13" font-weight="bold" lengthAdjust="spacing" textLength="19.4429" x="25" y="555.395">alt</text><text fill="#000000" font-family="sans-serif" font-size="11" font-weight="bold" lengthAdjust="spacing" textLength="146.3945" x="89.4429" y="554.5386">[Reservation Succeeds]</text><g class="message" data-entity-1="part2" data-entity-2="part1" id="msg5"><polygon fill="#181818" points="70.0801,576.5938,60.0801,580.5938,70.0801,584.5938,66.0801,580.5938" style="stroke:#181818;stroke-width:1;"/><line style="stroke:#181818;stroke-width:1;stroke-dasharray:2,2;" x1="64.0801" x2="469.0332" y1="580.5938" y2="580.5938"/><text fill="#000000" font-family="sans-serif" font-size="13" lengthAdjust="spacing" textLength="125.7534" x="76.0801" y="575.5278">reservationCreated</text></g><line style="stroke:#000000;stroke-width:1;stroke-dasharray:2,2;" x1="10" x2="513.1362" y1="589.5938" y2="589.5938"/><text fill="#000000" font-family="sans-serif" font-size="11" font-weight="bold" lengthAdjust="spacing" textLength="117.2832" x="15" y="599.8042">[Reservation Fails]</text><g class="message" data-entity-1="part2" data-entity-2="part1" id="msg6"><polygon fill="#181818" points="70.0801,620.5313,60.0801,624.5313,70.0801,628.5313,66.0801,624.5313" style="stroke:#181818;stroke-width:1;"/><line style="stroke:#181818;stroke-width:1;stroke-dasharray:2,2;" x1="64.0801" x2="469.0332" y1="624.5313" y2="624.5313"/><text fill="#000000" font-family="sans-serif" font-size="13" lengthAdjust="spacing" textLength="106.2217" x="76.0801" y="619.4653">reservationError</text></g><path d="M168,644.5313 L168,684.5313 L464,684.5313 L464,654.5313 L454,644.5313 L168,644.5313" fill="#FEFFDD" style="stroke:#181818;stroke-width:0.5;"/><path d="M454,644.5313 L454,654.5313 L464,654.5313 L454,644.5313" fill="#FEFFDD" style="stroke:#181818;stroke-width:0.5;"/><text fill="#000000" font-family="sans-serif" font-size="13" lengthAdjust="spacing" textLength="275.1201" x="174" y="661.5981">Reservation created with PENDING status.</text><text fill="#000000" font-family="sans-serif" font-size="13" lengthAdjust="spacing" textLength="210.1011" x="174" y="676.731">Media Owner approval required.</text><rect fill="none" height="53.0703" style="stroke:#000000;stroke-width:1.5;" width="228.4688" x="433.9302" y="689.7969"/><path d="M433.9302,689.7969 L498.9302,689.7969 L498.9302,696.7969 L488.9302,706.7969 L433.9302,706.7969 L433.9302,689.7969" fill="#EEEEEE" style="stroke:#000000;stroke-width:2;"/><text fill="#000000" font-family="sans-serif" font-size="13" font-weight="bold" lengthAdjust="spacing" textLength="20.8838" x="446.9302" y="703.8638">ref</text><text fill="#000000" font-family="sans-serif" font-size="12" font-style="italic" lengthAdjust="spacing" textLength="210.4688" x="442.9302" y="721.9355">UC- Approve Reservation Use Case</text><text fill="#000000" font-family="sans-serif" font-size="12" lengthAdjust="spacing" textLength="197.5078" x="449.4106" y="735.9043">(Media Owner approves request)</text><rect fill="none" height="53.0703" style="stroke:#000000;stroke-width:1.5;" width="489.1362" x="17" y="747.8672"/><path d="M17,747.8672 L82,747.8672 L82,754.8672 L72,764.8672 L17,764.8672 L17,747.8672" fill="#EEEEEE" style="stroke:#000000;stroke-width:2;"/><text fill="#000000" font-family="sans-serif" font-size="13" font-weight="bold" lengthAdjust="spacing" textLength="20.8838" x="30" y="761.9341">ref</text><text fill="#000000" font-family="sans-serif" font-size="12" font-style="italic" lengthAdjust="spacing" textLength="198.9492" x="162.0935" y="780.0059">Advertiser views his reservations</text><text fill="#000000" font-family="sans-serif" font-size="12" font-style="italic" lengthAdjust="spacing" textLength="204.6211" x="159.2576" y="793.9746">(UC- View Reservations Use Case)</text><g class="message" data-entity-1="part1" data-entity-2="part2" id="msg7"><polygon fill="#181818" points="458.0332,823.0703,468.0332,827.0703,458.0332,831.0703,462.0332,827.0703" style="stroke:#181818;stroke-width:1;"/><line style="stroke:#181818;stroke-width:1;" x1="59.0801" x2="464.0332" y1="827.0703" y2="827.0703"/><text fill="#000000" font-family="sans-serif" font-size="13" lengthAdjust="spacing" textLength="194.7905" x="66.0801" y="822.0044">submitPayment(paymentInfo)</text></g><path d="M64,840.0703 L64,895.0703 L231,895.0703 L231,850.0703 L221,840.0703 L64,840.0703" fill="#FEFFDD" style="stroke:#181818;stroke-width:0.5;"/><path d="M221,840.0703 L221,850.0703 L231,850.0703 L221,840.0703" fill="#FEFFDD" style="stroke:#181818;stroke-width:0.5;"/><text fill="#000000" font-family="sans-serif" font-size="13" lengthAdjust="spacing" textLength="146.0532" x="70" y="857.1372">paymentInfo contains:</text><text fill="#000000" font-family="sans-serif" font-size="13" lengthAdjust="spacing" textLength="127.5752" x="70" y="872.27">- paymentMethodId</text><text fill="#000000" font-family="sans-serif" font-size="13" lengthAdjust="spacing" textLength="93.082" x="70" y="887.4028">- billingDetails</text><path d="M10,907.4688 L74.4429,907.4688 L74.4429,914.6016 L64.4429,924.6016 L10,924.6016 L10,907.4688" fill="#EEEEEE" style="stroke:#000000;stroke-width:1.5;"/><rect fill="none" height="90.2031" style="stroke:#000000;stroke-width:1.5;" width="503.1362" x="10" y="907.4688"/><text fill="#000000" font-family="sans-serif" font-size="13" font-weight="bold" lengthAdjust="spacing" textLength="19.4429" x="25" y="920.5356">alt</text><text fill="#000000" font-family="sans-serif" font-size="11" font-weight="bold" lengthAdjust="spacing" textLength="125.313" x="89.4429" y="919.6792">[Payment succeeds]</text><g class="message" data-entity-1="part2" data-entity-2="part1" id="msg8"><polygon fill="#181818" points="70.0801,941.7344,60.0801,945.7344,70.0801,949.7344,66.0801,945.7344" style="stroke:#181818;stroke-width:1;"/><line style="stroke:#181818;stroke-width:1;stroke-dasharray:2,2;" x1="64.0801" x2="469.0332" y1="945.7344" y2="945.7344"/><text fill="#000000" font-family="sans-serif" font-size="13" lengthAdjust="spacing" textLength="142.2446" x="76.0801" y="940.6685">paymentConfirmation</text></g><line style="stroke:#000000;stroke-width:1;stroke-dasharray:2,2;" x1="10" x2="513.1362" y1="954.7344" y2="954.7344"/><text fill="#000000" font-family="sans-serif" font-size="11" font-weight="bold" lengthAdjust="spacing" textLength="94.8481" x="15" y="964.9448">[Payment fails]</text><g class="message" data-entity-1="part2" data-entity-2="part1" id="msg9"><polygon fill="#181818" points="70.0801,985.6719,60.0801,989.6719,70.0801,993.6719,66.0801,989.6719" style="stroke:#181818;stroke-width:1;"/><line style="stroke:#181818;stroke-width:1;stroke-dasharray:2,2;" x1="64.0801" x2="469.0332" y1="989.6719" y2="989.6719"/><text fill="#000000" font-family="sans-serif" font-size="13" lengthAdjust="spacing" textLength="90.1113" x="76.0801" y="984.606">paymentError</text></g><path d="M238,1009.6719 L238,1094.6719 L464,1094.6719 L464,1019.6719 L454,1009.6719 L238,1009.6719" fill="#FEFFDD" style="stroke:#181818;stroke-width:0.5;"/><path d="M454,1009.6719 L454,1019.6719 L464,1019.6719 L454,1009.6719" fill="#FEFFDD" style="stroke:#181818;stroke-width:0.5;"/><text fill="#000000" font-family="sans-serif" font-size="13" lengthAdjust="spacing" textLength="205.7847" x="244" y="1026.7388">paymentConfirmation contains:</text><text fill="#000000" font-family="sans-serif" font-size="13" lengthAdjust="spacing" textLength="94.9292" x="244" y="1041.8716">- reservationId</text><text fill="#000000" font-family="sans-serif" font-size="13" lengthAdjust="spacing" textLength="135.751" x="244" y="1057.0044">- campaignStartDate</text><text fill="#000000" font-family="sans-serif" font-size="13" lengthAdjust="spacing" textLength="128.6987" x="244" y="1072.1372">- campaignEndDate</text><text fill="#000000" font-family="sans-serif" font-size="13" lengthAdjust="spacing" textLength="89.7622" x="244" y="1087.27">- activeStatus</text><g class="message" data-entity-1="part2" data-entity-2="part4" id="msg10"><polygon fill="#181818" points="732.7368,1117.4688,742.7368,1121.4688,732.7368,1125.4688,736.7368,1121.4688" style="stroke:#181818;stroke-width:1;"/><line style="stroke:#181818;stroke-width:1;" x1="470.0332" x2="738.7368" y1="1121.4688" y2="1121.4688"/><text fill="#000000" font-family="sans-serif" font-size="13" lengthAdjust="spacing" textLength="230.7119" x="477.0332" y="1116.4028">sendSimpleEmail(to, subject, body)</text></g><g class="message" data-entity-1="part4" data-entity-2="part3" id="msg11"><polygon fill="#181818" points="621.2939,1146.6016,611.2939,1150.6016,621.2939,1154.6016,617.2939,1150.6016" style="stroke:#181818;stroke-width:1;"/><line style="stroke:#181818;stroke-width:1;" x1="615.2939" x2="743.7368" y1="1150.6016" y2="1150.6016"/><text fill="#000000" font-family="sans-serif" font-size="13" lengthAdjust="spacing" textLength="110.4429" x="627.2939" y="1145.5356">emailNotification</text></g><?plantuml-src fLLDR-8m4BtxLunw0WdQUuKYiS1MIDikscnxsej99k1LOgUs0zj_lsF7IGob7wlb09dn-BtvU4Eii2N2h4dI5sEnWXIV6vGPmbBmdURLxAP9VibvVa1jXK4DcsPR2hE7UGuBNjLSx2HZFBDAmn35QauFcQYvjD0YXvYhUym5X-z7YVeAk05lU_FaqjLiXdyiQidBX1AugxWe8Rt_kV6Nl3dVh1dJM80Ysi0oYPC0-in4yhYOma8ZjnWd3Oy6oJ0ukn49Gva3GNqMxejMHxhUrl8_G4y2Zm7ccp1Mo1qiqL9nvZ8iYoOnJGBuBHsHuu0UQ5IvxtK-0PvtnJhBM6hlahem0K9p3sD6aoijFF5IvDmA9S4qMOQO6vzZaCIKY0RQZip7XrmPbfHi15DuxpiOXpvsfRNIhZuc5KsenCA2AZhHm0Kso9Ia1sbkwNWAeLp_dFNrUhClsLkXQjzBnyNUwYRX5q9NFmRcqRZjLEI2zDzQrIemRriLutpzg5SHoD0izaQxOkIifOIZi7lOh1wMwuSxrnFRc6iAZJOHU5rhHKCXikT6QColepQzqdAqiv6MvnxZjBWJ4RlOqMjMD9uLZHqFEl_4_aJ3Ez0Q6TWB4pVBzAGKFEgtBKflMBBnwPQz8GpJR2jXD_obGcb7TVkxbeKQjzFGOhVtupX9DeexasuukKUxLtdGx5QK9VqDz9lLJy7fBr1_Qaq3-A8Liw-t5Ly7yk6I1eH8T9SrTu7fhD1eAcURcfwiQETTXLLrFdflY0EcNhPHExgSa_vbGFEXurHKTOahvnjPDN4p-usPdS1MvIzZrWMxYuECRm6T_q5PKOZCv_aN?></g></svg>