<?plantuml 1.2026.2beta3?><svg xmlns="http://www.w3.org/2000/svg" xmlns:xlink="http://www.w3.org/1999/xlink" contentStyleType="text/css" data-diagram-type="SEQUENCE" height="1396px" preserveAspectRatio="none" style="width:898px;height:1396px;background:#FFFFFF;" version="1.1" viewBox="0 0 898 1396" width="898px" zoomAndPan="magnify"><title>&lt;u&gt;System Sequence Diagram&lt;/u&gt;
Advertiser Publish Ad Campaign</title><defs/><g><text fill="#000000" font-family="sans-serif" font-size="14" font-weight="bold" lengthAdjust="spacing" text-decoration="underline" textLength="211.7158" x="344.1592" y="27.9951">System Sequence Diagram</text><text fill="#000000" font-family="sans-serif" font-size="14" font-weight="bold" lengthAdjust="spacing" textLength="254.7959" x="322.6191" y="44.292">Advertiser Publish Ad Campaign</text><rect fill="none" height="90.2031" style="stroke:#000000;stroke-width:1.5;" width="503.1362" x="10" y="313.3281"/><rect fill="none" height="90.2031" style="stroke:#000000;stroke-width:1.5;" width="503.1362" x="10" y="542.3281"/><rect fill="none" height="331.5313" style="stroke:#000000;stroke-width:1.5;" width="881.0342" x="10" y="966.9297"/><g class="participant-lifeline" data-entity-uid="part1" data-qualified-name="Advertiser" id="part1-lifeline"><g><title>Advertiser</title><rect fill="#000000" fill-opacity="0.00000" height="1180.5703" width="8" x="55.0801" y="134.8906"/><line style="stroke:#181818;stroke-width:0.5;stroke-dasharray:5,5;" x1="59" x2="59" y1="134.8906" y2="1315.4609"/></g></g><g class="participant-lifeline" data-entity-uid="part2" data-qualified-name="System" id="part2-lifeline"><g><title>System</title><rect fill="#000000" fill-opacity="0.00000" height="1180.5703" width="8" x="466.0332" y="134.8906"/><line style="stroke:#181818;stroke-width:0.5;stroke-dasharray:5,5;" x1="469.9302" x2="469.9302" y1="134.8906" y2="1315.4609"/></g></g><g class="participant-lifeline" data-entity-uid="part3" data-qualified-name="MediaOwner" id="part3-lifeline"><g><title>Media Owner</title><rect fill="#000000" fill-opacity="0.00000" height="1180.5703" width="8" x="606.2939" y="134.8906"/><line style="stroke:#181818;stroke-width:0.5;stroke-dasharray:5,5;" x1="610.189" x2="610.189" y1="134.8906" y2="1315.4609"/></g></g><g class="participant-lifeline" data-entity-uid="part4" data-qualified-name="GmailAPI" id="part4-lifeline"><g><title>..external..</title><rect fill="#000000" fill-opacity="0.00000" height="1180.5703" width="8" x="740.7368" y="134.8906"/><line style="stroke:#181818;stroke-width:0.5;stroke-dasharray:5,5;" x1="744.1094" x2="744.1094" y1="134.8906" y2="1315.4609"/></g></g><g class="participant-lifeline" data-entity-uid="part5" data-qualified-name="StripeAPI" id="part5-lifeline"><g><title>StripeAPI</title><rect fill="#000000" fill-opacity="0.00000" height="1180.5703" width="8" x="838.1992" y="134.8906"/><line style="stroke:#181818;stroke-width:0.5;stroke-dasharray:5,5;" x1="841.3643" x2="841.3643" y1="134.8906" y2="1315.4609"/></g></g><g class="participant participant-head" data-entity-uid="part1" data-qualified-name="Advertiser" id="part1-head"><text fill="#000000" font-family="sans-serif" font-size="14" lengthAdjust="spacing" textLength="72.1602" x="20" y="131.5889">Advertiser</text><ellipse cx="59.0801" cy="67.0938" fill="#E2E2F0" rx="8" ry="8" style="stroke:#181818;stroke-width:0.5;"/><path d="M59.0801,75.0938 L59.0801,102.0938 M46.0801,83.0938 L72.0801,83.0938 M59.0801,102.0938 L46.0801,117.0938 M59.0801,102.0938 L72.0801,117.0938" fill="none" style="stroke:#181818;stroke-width:0.5;"/></g><g class="participant participant-tail" data-entity-uid="part1" data-qualified-name="Advertiser" id="part1-tail"><text fill="#000000" font-family="sans-serif" font-size="14" lengthAdjust="spacing" textLength="72.1602" x="20" y="1327.4561">Advertiser</text><ellipse cx="59.0801" cy="1339.2578" fill="#E2E2F0" rx="8" ry="8" style="stroke:#181818;stroke-width:0.5;"/><path d="M59.0801,1347.2578 L59.0801,1374.2578 M46.0801,1355.2578 L72.0801,1355.2578 M59.0801,1374.2578 L46.0801,1389.2578 M59.0801,1374.2578 L72.0801,1389.2578" fill="none" style="stroke:#181818;stroke-width:0.5;"/></g><g class="participant participant-head" data-entity-uid="part2" data-qualified-name="System" id="part2-head"><rect fill="#E2E2F0" height="30.2969" rx="2.5" ry="2.5" style="stroke:#181818;stroke-width:0.5;" width="66.2061" x="436.9302" y="103.5938"/><text fill="#000000" font-family="sans-serif" font-size="14" lengthAdjust="spacing" textLength="52.2061" x="443.9302" y="123.5889">System</text></g><g class="participant participant-tail" data-entity-uid="part2" data-qualified-name="System" id="part2-tail"><rect fill="#E2E2F0" height="30.2969" rx="2.5" ry="2.5" style="stroke:#181818;stroke-width:0.5;" width="66.2061" x="436.9302" y="1314.4609"/><text fill="#000000" font-family="sans-serif" font-size="14" lengthAdjust="spacing" textLength="52.2061" x="443.9302" y="1334.4561">System</text></g><g class="participant participant-head" data-entity-uid="part3" data-qualified-name="MediaOwner" id="part3-head"><text fill="#000000" font-family="sans-serif" font-size="14" lengthAdjust="spacing" textLength="92.21" x="561.189" y="131.5889">Media Owner</text><ellipse cx="610.2939" cy="67.0938" fill="#E2E2F0" rx="8" ry="8" style="stroke:#181818;stroke-width:0.5;"/><path d="M610.2939,75.0938 L610.2939,102.0938 M597.2939,83.0938 L623.2939,83.0938 M610.2939,102.0938 L597.2939,117.0938 M610.2939,102.0938 L623.2939,117.0938" fill="none" style="stroke:#181818;stroke-width:0.5;"/></g><g class="participant participant-tail" data-entity-uid="part3" data-qualified-name="MediaOwner" id="part3-tail"><text fill="#000000" font-family="sans-serif" font-size="14" lengthAdjust="spacing" textLength="92.21" x="561.189" y="1327.4561">Media Owner</text><ellipse cx="610.2939" cy="1339.2578" fill="#E2E2F0" rx="8" ry="8" style="stroke:#181818;stroke-width:0.5;"/><path d="M610.2939,1347.2578 L610.2939,1374.2578 M597.2939,1355.2578 L623.2939,1355.2578 M610.2939,1374.2578 L597.2939,1389.2578 M610.2939,1374.2578 L623.2939,1389.2578" fill="none" style="stroke:#181818;stroke-width:0.5;"/></g><g class="participant participant-head" data-entity-uid="part4" data-qualified-name="GmailAPI" id="part4-head"><rect fill="#E2E2F0" height="46.5938" rx="2.5" ry="2.5" style="stroke:#181818;stroke-width:0.5;" width="97.2549" x="696.1094" y="87.2969"/><text fill="#000000" font-family="sans-serif" font-size="14" lengthAdjust="spacing" textLength="75.2295" x="707.1221" y="107.292">&#171;external&#187;</text><text fill="#000000" font-family="sans-serif" font-size="14" lengthAdjust="spacing" textLength="83.2549" x="703.1094" y="123.5889">Gmail SMTP</text></g><g class="participant participant-tail" data-entity-uid="part4" data-qualified-name="GmailAPI" id="part4-tail"><rect fill="#E2E2F0" height="46.5938" rx="2.5" ry="2.5" style="stroke:#181818;stroke-width:0.5;" width="97.2549" x="696.1094" y="1314.4609"/><text fill="#000000" font-family="sans-serif" font-size="14" lengthAdjust="spacing" textLength="75.2295" x="707.1221" y="1334.4561">&#171;external&#187;</text><text fill="#000000" font-family="sans-serif" font-size="14" lengthAdjust="spacing" textLength="83.2549" x="703.1094" y="1350.7529">Gmail SMTP</text></g><g class="participant participant-head" data-entity-uid="part5" data-qualified-name="StripeAPI" id="part5-head"><rect fill="#E2E2F0" height="30.2969" rx="2.5" ry="2.5" style="stroke:#181818;stroke-width:0.5;" width="77.6699" x="803.3643" y="103.5938"/><text fill="#000000" font-family="sans-serif" font-size="14" lengthAdjust="spacing" textLength="63.6699" x="810.3643" y="123.5889">StripeAPI</text></g><g class="participant participant-tail" data-entity-uid="part5" data-qualified-name="StripeAPI" id="part5-tail"><rect fill="#E2E2F0" height="30.2969" rx="2.5" ry="2.5" style="stroke:#181818;stroke-width:0.5;" width="77.6699" x="803.3643" y="1314.4609"/><text fill="#000000" font-family="sans-serif" font-size="14" lengthAdjust="spacing" textLength="63.6699" x="810.3643" y="1334.4561">StripeAPI</text></g><rect fill="none" height="39.1016" style="stroke:#000000;stroke-width:1.5;" width="489.1362" x="17" y="144.8906"/><path d="M17,144.8906 L82,144.8906 L82,151.8906 L72,161.8906 L17,161.8906 L17,144.8906" fill="#EEEEEE" style="stroke:#000000;stroke-width:2;"/><text fill="#000000" font-family="sans-serif" font-size="13" font-weight="bold" lengthAdjust="spacing" textLength="20.8838" x="30" y="158.9575">ref</text><text fill="#000000" font-family="sans-serif" font-size="12" font-style="italic" lengthAdjust="spacing" textLength="209.2617" x="156.9373" y="177.0293">UC- Create Ad Campaign Use Case</text><rect fill="none" height="39.1016" style="stroke:#000000;stroke-width:1.5;" width="489.1362" x="17" y="188.9922"/><path d="M17,188.9922 L82,188.9922 L82,195.9922 L72,205.9922 L17,205.9922 L17,188.9922" fill="#EEEEEE" style="stroke:#000000;stroke-width:2;"/><text fill="#000000" font-family="sans-serif" font-size="13" font-weight="bold" lengthAdjust="spacing" textLength="20.8838" x="30" y="203.0591">ref</text><text fill="#000000" font-family="sans-serif" font-size="12" font-style="italic" lengthAdjust="spacing" textLength="168.5332" x="177.3015" y="221.1309">UC- Browse Media Use Case</text><rect fill="none" height="39.1016" style="stroke:#000000;stroke-width:1.5;" width="489.1362" x="17" y="233.0938"/><path d="M17,233.0938 L82,233.0938 L82,240.0938 L72,250.0938 L17,250.0938 L17,233.0938" fill="#EEEEEE" style="stroke:#000000;stroke-width:2;"/><text fill="#000000" font-family="sans-serif" font-size="13" font-weight="bold" lengthAdjust="spacing" textLength="20.8838" x="30" y="247.1606">ref</text><text fill="#000000" font-family="sans-serif" font-size="12" font-style="italic" lengthAdjust="spacing" textLength="242.0801" x="140.5281" y="265.2324">UC- View Media Listing Details Use Case</text><g class="message" data-entity-1="part1" data-entity-2="part2" id="msg1"><polygon fill="#181818" points="458.0332,294.3281,468.0332,298.3281,458.0332,302.3281,462.0332,298.3281" style="stroke:#181818;stroke-width:1;"/><line style="stroke:#181818;stroke-width:1;" x1="59.0801" x2="464.0332" y1="298.3281" y2="298.3281"/><text fill="#000000" font-family="sans-serif" font-size="13" lengthAdjust="spacing" textLength="386.9531" x="66.0801" y="293.2622">reserveMedia(mediaId, adCampaignId, startDate, endDate)</text></g><path d="M10,313.3281 L74.4429,313.3281 L74.4429,320.4609 L64.4429,330.4609 L10,330.4609 L10,313.3281" fill="#EEEEEE" style="stroke:#000000;stroke-width:1.5;"/><rect fill="none" height="90.2031" style="stroke:#000000;stroke-width:1.5;" width="503.1362" x="10" y="313.3281"/><text fill="#000000" font-family="sans-serif" font-size="13" font-weight="bold" lengthAdjust="spacing" textLength="19.4429" x="25" y="326.395">alt</text><text fill="#000000" font-family="sans-serif" font-size="11" font-weight="bold" lengthAdjust="spacing" textLength="133.8369" x="89.4429" y="325.5386">[Validation succeeds]</text><g class="message" data-entity-1="part2" data-entity-2="part1" id="msg2"><polygon fill="#181818" points="70.0801,347.5938,60.0801,351.5938,70.0801,355.5938,66.0801,351.5938" style="stroke:#181818;stroke-width:1;"/><line style="stroke:#181818;stroke-width:1;stroke-dasharray:2,2;" x1="64.0801" x2="469.0332" y1="351.5938" y2="351.5938"/><text fill="#000000" font-family="sans-serif" font-size="13" lengthAdjust="spacing" textLength="119.0884" x="76.0801" y="346.5278">reservationDetails</text></g><line style="stroke:#000000;stroke-width:1;stroke-dasharray:2,2;" x1="10" x2="513.1362" y1="360.5938" y2="360.5938"/><text fill="#000000" font-family="sans-serif" font-size="11" font-weight="bold" lengthAdjust="spacing" textLength="103.3721" x="15" y="370.8042">[Validation fails]</text><g class="message" data-entity-1="part2" data-entity-2="part1" id="msg3"><polygon fill="#181818" points="70.0801,391.5313,60.0801,395.5313,70.0801,399.5313,66.0801,395.5313" style="stroke:#181818;stroke-width:1;"/><line style="stroke:#181818;stroke-width:1;stroke-dasharray:2,2;" x1="64.0801" x2="469.0332" y1="395.5313" y2="395.5313"/><text fill="#000000" font-family="sans-serif" font-size="13" lengthAdjust="spacing" textLength="96.2051" x="76.0801" y="390.4653">validationError</text></g><path d="M261,415.5313 L261,500.5313 L464,500.5313 L464,425.5313 L454,415.5313 L261,415.5313" fill="#FEFFDD" style="stroke:#181818;stroke-width:0.5;"/><path d="M454,415.5313 L454,425.5313 L464,425.5313 L454,415.5313" fill="#FEFFDD" style="stroke:#181818;stroke-width:0.5;"/><text fill="#000000" font-family="sans-serif" font-size="13" lengthAdjust="spacing" textLength="182.6284" x="267" y="432.5981">reservationDetails contains:</text><text fill="#000000" font-family="sans-serif" font-size="13" lengthAdjust="spacing" textLength="61.4009" x="267" y="447.731">- mediaId</text><text fill="#000000" font-family="sans-serif" font-size="13" lengthAdjust="spacing" textLength="85.0078" x="267" y="462.8638">- campaignId</text><text fill="#000000" font-family="sans-serif" font-size="13" lengthAdjust="spacing" textLength="70.1733" x="267" y="477.9966">- startDate</text><text fill="#000000" font-family="sans-serif" font-size="13" lengthAdjust="spacing" textLength="64.3843" x="267" y="493.1294">- endDate</text><g class="message" data-entity-1="part1" data-entity-2="part2" id="msg4"><polygon fill="#181818" points="458.0332,523.3281,468.0332,527.3281,458.0332,531.3281,462.0332,527.3281" style="stroke:#181818;stroke-width:1;"/><line style="stroke:#181818;stroke-width:1;" x1="59.0801" x2="464.0332" y1="527.3281" y2="527.3281"/><text fill="#000000" font-family="sans-serif" font-size="13" lengthAdjust="spacing" textLength="137.3887" x="66.0801" y="522.2622">confirmReservation()</text></g><path d="M10,542.3281 L74.4429,542.3281 L74.4429,549.4609 L64.4429,559.4609 L10,559.4609 L10,542.3281" fill="#EEEEEE" style="stroke:#000000;stroke-width:1.5;"/><rect fill="none" height="90.2031" style="stroke:#000000;stroke-width:1.5;" width="503.1362" x="10" y="542.3281"/><text fill="#000000" font-family="sans-serif" font-size="13" font-weight="bold" lengthAdjust="spacing" textLength="19.4429" x="25" y="555.395">alt</text><text fill="#000000" font-family="sans-serif" font-size="11" font-weight="bold" lengthAdjust="spacing" textLength="146.3945" x="89.4429" y="554.5386">[Reservation Succeeds]</text><g class="message" data-entity-1="part2" data-entity-2="part1" id="msg5"><polygon fill="#181818" points="70.0801,576.5938,60.0801,580.5938,70.0801,584.5938,66.0801,580.5938" style="stroke:#181818;stroke-width:1;"/><line style="stroke:#181818;stroke-width:1;stroke-dasharray:2,2;" x1="64.0801" x2="469.0332" y1="580.5938" y2="580.5938"/><text fill="#000000" font-family="sans-serif" font-size="13" lengthAdjust="spacing" textLength="125.7534" x="76.0801" y="575.5278">reservationCreated</text></g><line style="stroke:#000000;stroke-width:1;stroke-dasharray:2,2;" x1="10" x2="513.1362" y1="589.5938" y2="589.5938"/><text fill="#000000" font-family="sans-serif" font-size="11" font-weight="bold" lengthAdjust="spacing" textLength="117.2832" x="15" y="599.8042">[Reservation Fails]</text><g class="message" data-entity-1="part2" data-entity-2="part1" id="msg6"><polygon fill="#181818" points="70.0801,620.5313,60.0801,624.5313,70.0801,628.5313,66.0801,624.5313" style="stroke:#181818;stroke-width:1;"/><line style="stroke:#181818;stroke-width:1;stroke-dasharray:2,2;" x1="64.0801" x2="469.0332" y1="624.5313" y2="624.5313"/><text fill="#000000" font-family="sans-serif" font-size="13" lengthAdjust="spacing" textLength="106.2217" x="76.0801" y="619.4653">reservationError</text></g><path d="M168,644.5313 L168,684.5313 L464,684.5313 L464,654.5313 L454,644.5313 L168,644.5313" fill="#FEFFDD" style="stroke:#181818;stroke-width:0.5;"/><path d="M454,644.5313 L454,654.5313 L464,654.5313 L454,644.5313" fill="#FEFFDD" style="stroke:#181818;stroke-width:0.5;"/><text fill="#000000" font-family="sans-serif" font-size="13" lengthAdjust="spacing" textLength="275.1201" x="174" y="661.5981">Reservation created with PENDING status.</text><text fill="#000000" font-family="sans-serif" font-size="13" lengthAdjust="spacing" textLength="210.1011" x="174" y="676.731">Media Owner approval required.</text><rect fill="none" height="39.1016" style="stroke:#000000;stroke-width:1.5;" width="228.4688" x="433.9302" y="689.7969"/><path d="M433.9302,689.7969 L498.9302,689.7969 L498.9302,696.7969 L488.9302,706.7969 L433.9302,706.7969 L433.9302,689.7969" fill="#EEEEEE" style="stroke:#000000;stroke-width:2;"/><text fill="#000000" font-family="sans-serif" font-size="13" font-weight="bold" lengthAdjust="spacing" textLength="20.8838" x="446.9302" y="703.8638">ref</text><text fill="#000000" font-family="sans-serif" font-size="12" font-style="italic" lengthAdjust="spacing" textLength="210.4688" x="442.9302" y="721.9355">UC- Approve Reservation Use Case</text><rect fill="none" height="39.1016" style="stroke:#000000;stroke-width:1.5;" width="489.1362" x="17" y="733.8984"/><path d="M17,733.8984 L82,733.8984 L82,740.8984 L72,750.8984 L17,750.8984 L17,733.8984" fill="#EEEEEE" style="stroke:#000000;stroke-width:2;"/><text fill="#000000" font-family="sans-serif" font-size="13" font-weight="bold" lengthAdjust="spacing" textLength="20.8838" x="30" y="747.9653">ref</text><text fill="#000000" font-family="sans-serif" font-size="12" font-style="italic" lengthAdjust="spacing" textLength="204.6211" x="159.2576" y="766.0371">(UC- View Reservations Use Case)</text><g class="message" data-entity-1="part2" data-entity-2="part5" id="msg7"><polygon fill="#181818" points="830.1992,795.1328,840.1992,799.1328,830.1992,803.1328,834.1992,799.1328" style="stroke:#181818;stroke-width:1;"/><line style="stroke:#181818;stroke-width:1;" x1="470.0332" x2="836.1992" y1="799.1328" y2="799.1328"/><text fill="#000000" font-family="sans-serif" font-size="13" lengthAdjust="spacing" textLength="247.0635" x="477.0332" y="794.0669">Session.create(SessionCreateParams)</text></g><g class="message" data-entity-1="part5" data-entity-2="part2" id="msg8"><polygon fill="#181818" points="481.0332,824.2656,471.0332,828.2656,481.0332,832.2656,477.0332,828.2656" style="stroke:#181818;stroke-width:1;"/><line style="stroke:#181818;stroke-width:1;stroke-dasharray:2,2;" x1="475.0332" x2="841.1992" y1="828.2656" y2="828.2656"/><text fill="#000000" font-family="sans-serif" font-size="13" lengthAdjust="spacing" textLength="242.8232" x="487.0332" y="823.1997">session: com.stripe.checkout.Session</text></g><g class="message" data-entity-1="part1" data-entity-2="part2" id="msg9"><polygon fill="#181818" points="458.0332,853.3984,468.0332,857.3984,458.0332,861.3984,462.0332,857.3984" style="stroke:#181818;stroke-width:1;"/><line style="stroke:#181818;stroke-width:1;" x1="59.0801" x2="464.0332" y1="857.3984" y2="857.3984"/><text fill="#000000" font-family="sans-serif" font-size="13" lengthAdjust="spacing" textLength="194.7905" x="66.0801" y="852.3325">submitPayment(paymentInfo)</text></g><path d="M64,870.3984 L64,925.3984 L231,925.3984 L231,880.3984 L221,870.3984 L64,870.3984" fill="#FEFFDD" style="stroke:#181818;stroke-width:0.5;"/><path d="M221,870.3984 L221,880.3984 L231,880.3984 L221,870.3984" fill="#FEFFDD" style="stroke:#181818;stroke-width:0.5;"/><text fill="#000000" font-family="sans-serif" font-size="13" lengthAdjust="spacing" textLength="146.0532" x="70" y="887.4653">paymentInfo contains:</text><text fill="#000000" font-family="sans-serif" font-size="13" lengthAdjust="spacing" textLength="127.5752" x="70" y="902.5981">- paymentMethodId</text><text fill="#000000" font-family="sans-serif" font-size="13" lengthAdjust="spacing" textLength="93.082" x="70" y="917.731">- billingDetails</text><g class="message" data-entity-1="part2" data-entity-2="part5" id="msg10"><polygon fill="#181818" points="830.1992,947.9297,840.1992,951.9297,830.1992,955.9297,834.1992,951.9297" style="stroke:#181818;stroke-width:1;"/><line style="stroke:#181818;stroke-width:1;" x1="470.0332" x2="836.1992" y1="951.9297" y2="951.9297"/><text fill="#000000" font-family="sans-serif" font-size="13" lengthAdjust="spacing" textLength="305.9634" x="477.0332" y="946.8638">confirmPayment(clientSecret, paymentDetails)</text></g><path d="M10,966.9297 L74.4429,966.9297 L74.4429,974.0625 L64.4429,984.0625 L10,984.0625 L10,966.9297" fill="#EEEEEE" style="stroke:#000000;stroke-width:1.5;"/><rect fill="none" height="331.5313" style="stroke:#000000;stroke-width:1.5;" width="881.0342" x="10" y="966.9297"/><text fill="#000000" font-family="sans-serif" font-size="13" font-weight="bold" lengthAdjust="spacing" textLength="19.4429" x="25" y="979.9966">alt</text><text fill="#000000" font-family="sans-serif" font-size="11" font-weight="bold" lengthAdjust="spacing" textLength="94.8481" x="89.4429" y="979.1401">[Payment fails]</text><g class="message" data-entity-1="part2" data-entity-2="part1" id="msg11"><polygon fill="#181818" points="70.0801,1001.1953,60.0801,1005.1953,70.0801,1009.1953,66.0801,1005.1953" style="stroke:#181818;stroke-width:1;"/><line style="stroke:#181818;stroke-width:1;stroke-dasharray:2,2;" x1="64.0801" x2="469.0332" y1="1005.1953" y2="1005.1953"/><text fill="#000000" font-family="sans-serif" font-size="13" lengthAdjust="spacing" textLength="90.1113" x="76.0801" y="1000.1294">paymentError</text></g><line style="stroke:#000000;stroke-width:1;stroke-dasharray:2,2;" x1="10" x2="891.0342" y1="1014.1953" y2="1014.1953"/><text fill="#000000" font-family="sans-serif" font-size="11" font-weight="bold" lengthAdjust="spacing" textLength="125.313" x="15" y="1024.4058">[Payment succeeds]</text><g class="message" data-entity-1="part5" data-entity-2="part2" id="msg12"><polygon fill="#181818" points="481.0332,1045.1328,471.0332,1049.1328,481.0332,1053.1328,477.0332,1049.1328" style="stroke:#181818;stroke-width:1;"/><line style="stroke:#181818;stroke-width:1;stroke-dasharray:2,2;" x1="475.0332" x2="841.1992" y1="1049.1328" y2="1049.1328"/><text fill="#000000" font-family="sans-serif" font-size="13" lengthAdjust="spacing" textLength="96.002" x="487.0332" y="1044.0669">PaymentIntent</text></g><g class="message" data-entity-1="part5" data-entity-2="part2" id="msg13"><polygon fill="#181818" points="481.0332,1089.3984,471.0332,1093.3984,481.0332,1097.3984,477.0332,1093.3984" style="stroke:#181818;stroke-width:1;"/><line style="stroke:#181818;stroke-width:1;" x1="475.0332" x2="841.1992" y1="1093.3984" y2="1093.3984"/><text fill="#000000" font-family="sans-serif" font-size="13" lengthAdjust="spacing" textLength="187.3447" x="487.0332" y="1073.1997">POST /api/v1/stripe/webhook</text><text fill="#000000" font-family="sans-serif" font-size="13" lengthAdjust="spacing" textLength="240.6079" x="487.0332" y="1088.3325">(Event: checkout.session.completed)</text></g><path d="M225,1106.3984 L225,1176.3984 L464,1176.3984 L464,1116.3984 L454,1106.3984 L225,1106.3984" fill="#FEFFDD" style="stroke:#181818;stroke-width:0.5;"/><path d="M454,1106.3984 L454,1116.3984 L464,1116.3984 L454,1106.3984" fill="#FEFFDD" style="stroke:#181818;stroke-width:0.5;"/><text fill="#000000" font-family="sans-serif" font-size="13" lengthAdjust="spacing" textLength="189.1157" x="231" y="1123.4653">Webhook received indicating</text><text fill="#000000" font-family="sans-serif" font-size="13" lengthAdjust="spacing" textLength="196.771" x="231" y="1138.5981">successful payment. Updating</text><text fill="#000000" font-family="sans-serif" font-size="13" lengthAdjust="spacing" textLength="218.2324" x="231" y="1153.731">reservation status to CONFIRMED</text><text fill="#000000" font-family="sans-serif" font-size="13" lengthAdjust="spacing" textLength="209.0664" x="231" y="1168.8638">and campaign status to ACTIVE.</text><g class="message" data-entity-1="part2" data-entity-2="part4" id="msg14"><polygon fill="#181818" points="732.7368,1199.0625,742.7368,1203.0625,732.7368,1207.0625,736.7368,1203.0625" style="stroke:#181818;stroke-width:1;"/><line style="stroke:#181818;stroke-width:1;" x1="470.0332" x2="738.7368" y1="1203.0625" y2="1203.0625"/><text fill="#000000" font-family="sans-serif" font-size="13" lengthAdjust="spacing" textLength="230.7119" x="477.0332" y="1197.9966">sendSimpleEmail(to, subject, body)</text></g><g class="message" data-entity-1="part4" data-entity-2="part3" id="msg15"><polygon fill="#181818" points="621.2939,1228.1953,611.2939,1232.1953,621.2939,1236.1953,617.2939,1232.1953" style="stroke:#181818;stroke-width:1;"/><line style="stroke:#181818;stroke-width:1;" x1="615.2939" x2="743.7368" y1="1232.1953" y2="1232.1953"/><text fill="#000000" font-family="sans-serif" font-size="13" lengthAdjust="spacing" textLength="110.4429" x="627.2939" y="1227.1294">emailNotification</text></g><g class="message" data-entity-1="part2" data-entity-2="part5" id="msg16"><polygon fill="#181818" points="830.1992,1257.3281,840.1992,1261.3281,830.1992,1265.3281,834.1992,1261.3281" style="stroke:#181818;stroke-width:1;"/><line style="stroke:#181818;stroke-width:1;stroke-dasharray:2,2;" x1="470.0332" x2="836.1992" y1="1261.3281" y2="1261.3281"/><text fill="#000000" font-family="sans-serif" font-size="13" lengthAdjust="spacing" textLength="85.3315" x="477.0332" y="1256.2622">HTTP 200 OK</text></g><g class="message" data-entity-1="part2" data-entity-2="part1" id="msg17"><polygon fill="#181818" points="70.0801,1286.4609,60.0801,1290.4609,70.0801,1294.4609,66.0801,1290.4609" style="stroke:#181818;stroke-width:1;"/><line style="stroke:#181818;stroke-width:1;stroke-dasharray:2,2;" x1="64.0801" x2="469.0332" y1="1290.4609" y2="1290.4609"/><text fill="#000000" font-family="sans-serif" font-size="13" lengthAdjust="spacing" textLength="129.3208" x="76.0801" y="1285.395">payment successful</text></g><?plantuml-src fLR1Sjem4BthAtPo0MO8f3rc66Oea9Hf8KnCqaikmbw26bjo9HcQl-zQbereeKcdEO0bhzvgttkxn0gR8WoAOVHgB6OGuOy2POmm4VnPyspGBuPFSfJiK5jXKCEoMAV2R66Km9XdEHVFaZ4UMwNX4CLoJW-noBcqK27xc8iv9eB3tLwYlW1kmAtTykZGnM20ForgoTCXNU0suoA5QBvQkaDkELhE6DEu0KLfVPPkU0cWlu4OFemlOQoHMmml3Gy6QM5mq1T3XZ81Wdelt2UjzdIygkL_W1u5xZtCLs6iaCymGKl5cTEmB53YSkZ1h-aLRUpG0RMpydEMT84dTR7bobYYTq8iT87GoeSE8-LI2uyy5GctGaamHHmZ9iRTqLlYaX8TqjR9NBo_AyEKBXl0RDpkNp1sJUnKQwNB-fXKf52A6mjgKvi6JcI3M4bwaEQQNb-2BzSznqszRjcKx5Q-QiTbcOkTOvFmDq9dzuVCxKx5LB05qRzHLJamgQWASMxUuYe0EP35pj0L8iTLIjWBkuNbT36PBMvBJcnXUXGQT2BmFDUAHA5aFmgXCUa5DFtXvQ1d0o-F7CPnSQTD_8xcQ3VT4S0Tcg9p35WpHnfQBNAaqN1DeymOEjIhQ6ZxPQN3ajDiCntMX3lMQmEOAhHqGjOpBgGNRp5-KONjUPmptZ75EXDsoLypbBQTLzypkL6TIZ0jdhTEiQEIWxZVtEtVpD5kLU9jlHPfIfEYQRvQg9CiU3FNDufJGLyH4YcsMwDxf8xpk8zykuVzOU_9qjRrqMQAdE5tMPThwPCTHGL1Tz4A-ZmN_Ts7VYL2Vu_hhL8lJx8ztT5HggvMnTHYgonFaLpVETCW0Dyg479EZ697_I5a8c9U3b_ttjtUc4sHrYNsu25F3W51G_fs0gjWVBUucTtFfnCNmqcKUXe5GQFnQlOu3Plh85hzerRwJoQHA0kPbdjjgxgbiRvZJ9gjLVBQONLmUV3GZjU0vVv2MR5n9P5F0_K2MtnUhPRmyUeAxhwmTuWSaEB6JukrJj7RQgmyhcpd1r5ZwLRftu0_SdGh7DnHCx6FjgT-TBjD-aU2P8iSfwpLCDdw1G00?></g></svg>