<?plantuml 1.2026.2beta3?><svg xmlns="http://www.w3.org/2000/svg" xmlns:xlink="http://www.w3.org/1999/xlink" contentStyleType="text/css" data-diagram-type="SEQUENCE" height="1020px" preserveAspectRatio="none" style="width:778px;height:1020px;background:#FFFFFF;" version="1.1" viewBox="0 0 778 1020" width="778px" zoomAndPan="magnify"><title>&lt;u&gt;System Sequence Diagram&lt;/u&gt;
Advertiser Publish Ad Campaign</title><defs/><g><text fill="#000000" font-family="sans-serif" font-size="14" font-weight="bold" lengthAdjust="spacing" text-decoration="underline" textLength="211.7158" x="281.7021" y="27.9951">System Sequence Diagram</text><text fill="#000000" font-family="sans-serif" font-size="14" font-weight="bold" lengthAdjust="spacing" textLength="254.7959" x="260.1621" y="44.292">Advertiser Publish Ad Campaign</text><rect fill="none" height="90.2031" style="stroke:#000000;stroke-width:1.5;" width="503.1362" x="10" y="327.2969"/><rect fill="none" height="90.2031" style="stroke:#000000;stroke-width:1.5;" width="503.1362" x="10" y="736.8984"/><g class="participant-lifeline" data-entity-uid="part1" data-qualified-name="Advertiser" id="part1-lifeline"><g><title>Advertiser</title><rect fill="#000000" fill-opacity="0.00000" height="804.875" width="8" x="55.0801" y="134.8906"/><line style="stroke:#181818;stroke-width:0.5;stroke-dasharray:5,5;" x1="59" x2="59" y1="134.8906" y2="939.7656"/></g></g><g class="participant-lifeline" data-entity-uid="part2" data-qualified-name="System" id="part2-lifeline"><g><title>System</title><rect fill="#000000" fill-opacity="0.00000" height="804.875" width="8" x="466.0332" y="134.8906"/><line style="stroke:#181818;stroke-width:0.5;stroke-dasharray:5,5;" x1="469.9302" x2="469.9302" y1="134.8906" y2="939.7656"/></g></g><g class="participant-lifeline" data-entity-uid="part3" data-qualified-name="MediaOwner" id="part3-lifeline"><g><title>Media Owner</title><rect fill="#000000" fill-opacity="0.00000" height="804.875" width="8" x="593.333" y="134.8906"/><line style="stroke:#181818;stroke-width:0.5;stroke-dasharray:5,5;" x1="597.228" x2="597.228" y1="134.8906" y2="939.7656"/></g></g><g class="participant participant-head" data-entity-uid="part1" data-qualified-name="Advertiser" id="part1-head"><text fill="#000000" font-family="sans-serif" font-size="14" lengthAdjust="spacing" textLength="72.1602" x="20" y="131.5889">Advertiser</text><ellipse cx="59.0801" cy="67.0938" fill="#E2E2F0" rx="8" ry="8" style="stroke:#181818;stroke-width:0.5;"/><path d="M59.0801,75.0938 L59.0801,102.0938 M46.0801,83.0938 L72.0801,83.0938 M59.0801,102.0938 L46.0801,117.0938 M59.0801,102.0938 L72.0801,117.0938" fill="none" style="stroke:#181818;stroke-width:0.5;"/></g><g class="participant participant-tail" data-entity-uid="part1" data-qualified-name="Advertiser" id="part1-tail"><text fill="#000000" font-family="sans-serif" font-size="14" lengthAdjust="spacing" textLength="72.1602" x="20" y="951.7607">Advertiser</text><ellipse cx="59.0801" cy="963.5625" fill="#E2E2F0" rx="8" ry="8" style="stroke:#181818;stroke-width:0.5;"/><path d="M59.0801,971.5625 L59.0801,998.5625 M46.0801,979.5625 L72.0801,979.5625 M59.0801,998.5625 L46.0801,1013.5625 M59.0801,998.5625 L72.0801,1013.5625" fill="none" style="stroke:#181818;stroke-width:0.5;"/></g><g class="participant participant-head" data-entity-uid="part2" data-qualified-name="System" id="part2-head"><rect fill="#E2E2F0" height="30.2969" rx="2.5" ry="2.5" style="stroke:#181818;stroke-width:0.5;" width="66.2061" x="436.9302" y="103.5938"/><text fill="#000000" font-family="sans-serif" font-size="14" lengthAdjust="spacing" textLength="52.2061" x="443.9302" y="123.5889">System</text></g><g class="participant participant-tail" data-entity-uid="part2" data-qualified-name="System" id="part2-tail"><rect fill="#E2E2F0" height="30.2969" rx="2.5" ry="2.5" style="stroke:#181818;stroke-width:0.5;" width="66.2061" x="436.9302" y="938.7656"/><text fill="#000000" font-family="sans-serif" font-size="14" lengthAdjust="spacing" textLength="52.2061" x="443.9302" y="958.7607">System</text></g><g class="participant participant-head" data-entity-uid="part3" data-qualified-name="MediaOwner" id="part3-head"><text fill="#000000" font-family="sans-serif" font-size="14" lengthAdjust="spacing" textLength="92.21" x="548.228" y="131.5889">Media Owner</text><ellipse cx="597.333" cy="67.0938" fill="#E2E2F0" rx="8" ry="8" style="stroke:#181818;stroke-width:0.5;"/><path d="M597.333,75.0938 L597.333,102.0938 M584.333,83.0938 L610.333,83.0938 M597.333,102.0938 L584.333,117.0938 M597.333,102.0938 L610.333,117.0938" fill="none" style="stroke:#181818;stroke-width:0.5;"/></g><g class="participant participant-tail" data-entity-uid="part3" data-qualified-name="MediaOwner" id="part3-tail"><text fill="#000000" font-family="sans-serif" font-size="14" lengthAdjust="spacing" textLength="92.21" x="548.228" y="951.7607">Media Owner</text><ellipse cx="597.333" cy="963.5625" fill="#E2E2F0" rx="8" ry="8" style="stroke:#181818;stroke-width:0.5;"/><path d="M597.333,971.5625 L597.333,998.5625 M584.333,979.5625 L610.333,979.5625 M597.333,998.5625 L584.333,1013.5625 M597.333,998.5625 L610.333,1013.5625" fill="none" style="stroke:#181818;stroke-width:0.5;"/></g><rect fill="none" height="39.1016" style="stroke:#000000;stroke-width:1.5;" width="489.1362" x="17" y="144.8906"/><path d="M17,144.8906 L82,144.8906 L82,151.8906 L72,161.8906 L17,161.8906 L17,144.8906" fill="#EEEEEE" style="stroke:#000000;stroke-width:2;"/><text fill="#000000" font-family="sans-serif" font-size="13" font-weight="bold" lengthAdjust="spacing" textLength="20.8838" x="30" y="158.9575">ref</text><text fill="#000000" font-family="sans-serif" font-size="12" font-style="italic" lengthAdjust="spacing" textLength="143.2266" x="189.9548" y="177.0293">Browse Media Use Case</text><g class="message" data-entity-1="part1" data-entity-2="part2" id="msg1"><polygon fill="#181818" points="458.0332,206.125,468.0332,210.125,458.0332,214.125,462.0332,210.125" style="stroke:#181818;stroke-width:1;"/><line style="stroke:#181818;stroke-width:1;" x1="59.0801" x2="464.0332" y1="210.125" y2="210.125"/><text fill="#000000" font-family="sans-serif" font-size="13" lengthAdjust="spacing" textLength="386.9531" x="66.0801" y="205.0591">reserveMedia(mediaId, adCampaignId, startDate, endDate)</text></g><rect fill="none" height="39.1016" style="stroke:#000000;stroke-width:1.5;" width="159.7109" x="433.9302" y="218.125"/><path d="M433.9302,218.125 L498.9302,218.125 L498.9302,225.125 L488.9302,235.125 L433.9302,235.125 L433.9302,218.125" fill="#EEEEEE" style="stroke:#000000;stroke-width:2;"/><text fill="#000000" font-family="sans-serif" font-size="13" font-weight="bold" lengthAdjust="spacing" textLength="20.8838" x="446.9302" y="232.1919">ref</text><text fill="#000000" font-family="sans-serif" font-size="12" font-style="italic" lengthAdjust="spacing" textLength="151.7109" x="437.9302" y="250.2637">Validate Date Availability</text><rect fill="none" height="53.0703" style="stroke:#000000;stroke-width:1.5;" width="122.9551" x="433.9302" y="262.2266"/><path d="M433.9302,262.2266 L498.9302,262.2266 L498.9302,269.2266 L488.9302,279.2266 L433.9302,279.2266 L433.9302,262.2266" fill="#EEEEEE" style="stroke:#000000;stroke-width:2;"/><text fill="#000000" font-family="sans-serif" font-size="13" font-weight="bold" lengthAdjust="spacing" textLength="20.8838" x="446.9302" y="276.2935">ref</text><text fill="#000000" font-family="sans-serif" font-size="12" font-style="italic" lengthAdjust="spacing" textLength="114.9551" x="437.9302" y="294.3652">Validate Advertiser</text><text fill="#000000" font-family="sans-serif" font-size="12" font-style="italic" lengthAdjust="spacing" textLength="80.373" x="455.2212" y="308.334">Authorization</text><path d="M10,327.2969 L74.4429,327.2969 L74.4429,334.4297 L64.4429,344.4297 L10,344.4297 L10,327.2969" fill="#EEEEEE" style="stroke:#000000;stroke-width:1.5;"/><rect fill="none" height="90.2031" style="stroke:#000000;stroke-width:1.5;" width="503.1362" x="10" y="327.2969"/><text fill="#000000" font-family="sans-serif" font-size="13" font-weight="bold" lengthAdjust="spacing" textLength="19.4429" x="25" y="340.3638">alt</text><text fill="#000000" font-family="sans-serif" font-size="11" font-weight="bold" lengthAdjust="spacing" textLength="133.8369" x="89.4429" y="339.5073">[Validation succeeds]</text><g class="message" data-entity-1="part2" data-entity-2="part1" id="msg2"><polygon fill="#181818" points="70.0801,361.5625,60.0801,365.5625,70.0801,369.5625,66.0801,365.5625" style="stroke:#181818;stroke-width:1;"/><line style="stroke:#181818;stroke-width:1;stroke-dasharray:2,2;" x1="64.0801" x2="469.0332" y1="365.5625" y2="365.5625"/><text fill="#000000" font-family="sans-serif" font-size="13" lengthAdjust="spacing" textLength="119.0884" x="76.0801" y="360.4966">reservationDetails</text></g><line style="stroke:#000000;stroke-width:1;stroke-dasharray:2,2;" x1="10" x2="513.1362" y1="374.5625" y2="374.5625"/><text fill="#000000" font-family="sans-serif" font-size="11" font-weight="bold" lengthAdjust="spacing" textLength="103.3721" x="15" y="384.7729">[Validation fails]</text><g class="message" data-entity-1="part2" data-entity-2="part1" id="msg3"><polygon fill="#181818" points="70.0801,405.5,60.0801,409.5,70.0801,413.5,66.0801,409.5" style="stroke:#181818;stroke-width:1;"/><line style="stroke:#181818;stroke-width:1;stroke-dasharray:2,2;" x1="64.0801" x2="469.0332" y1="409.5" y2="409.5"/><text fill="#000000" font-family="sans-serif" font-size="13" lengthAdjust="spacing" textLength="96.2051" x="76.0801" y="404.4341">validationError</text></g><path d="M475,429.5 L475,499.5 L678,499.5 L678,439.5 L668,429.5 L475,429.5" fill="#FEFFDD" style="stroke:#181818;stroke-width:0.5;"/><path d="M668,429.5 L668,439.5 L678,439.5 L668,429.5" fill="#FEFFDD" style="stroke:#181818;stroke-width:0.5;"/><text fill="#000000" font-family="sans-serif" font-size="13" lengthAdjust="spacing" textLength="182.6284" x="481" y="446.5669">reservationDetails contains:</text><text fill="#000000" font-family="sans-serif" font-size="13" lengthAdjust="spacing" textLength="76.1592" x="481" y="461.6997">- adPreview</text><text fill="#000000" font-family="sans-serif" font-size="13" lengthAdjust="spacing" textLength="70.4907" x="481" y="476.8325">- totalPrice</text><text fill="#000000" font-family="sans-serif" font-size="13" lengthAdjust="spacing" textLength="94.3833" x="481" y="491.9653">- mediaDetails</text><g class="message" data-entity-1="part1" data-entity-2="part2" id="msg4"><polygon fill="#181818" points="458.0332,522.1641,468.0332,526.1641,458.0332,530.1641,462.0332,526.1641" style="stroke:#181818;stroke-width:1;"/><line style="stroke:#181818;stroke-width:1;" x1="59.0801" x2="464.0332" y1="526.1641" y2="526.1641"/><text fill="#000000" font-family="sans-serif" font-size="13" lengthAdjust="spacing" textLength="137.3887" x="66.0801" y="521.0981">confirmReservation()</text></g><g class="message" data-entity-1="part2" data-entity-2="part1" id="msg5"><polygon fill="#181818" points="70.0801,551.2969,60.0801,555.2969,70.0801,559.2969,66.0801,555.2969" style="stroke:#181818;stroke-width:1;"/><line style="stroke:#181818;stroke-width:1;stroke-dasharray:2,2;" x1="64.0801" x2="469.0332" y1="555.2969" y2="555.2969"/><text fill="#000000" font-family="sans-serif" font-size="13" lengthAdjust="spacing" textLength="126.4517" x="76.0801" y="550.231">reservationPending</text></g><path d="M475,568.2969 L475,608.2969 L771,608.2969 L771,578.2969 L761,568.2969 L475,568.2969" fill="#FEFFDD" style="stroke:#181818;stroke-width:0.5;"/><path d="M761,568.2969 L761,578.2969 L771,578.2969 L761,568.2969" fill="#FEFFDD" style="stroke:#181818;stroke-width:0.5;"/><text fill="#000000" font-family="sans-serif" font-size="13" lengthAdjust="spacing" textLength="275.1201" x="481" y="585.3638">Reservation created with PENDING status.</text><text fill="#000000" font-family="sans-serif" font-size="13" lengthAdjust="spacing" textLength="210.1011" x="481" y="600.4966">Media Owner approval required.</text><rect fill="none" height="53.0703" style="stroke:#000000;stroke-width:1.5;" width="215.5078" x="433.9302" y="613.5625"/><path d="M433.9302,613.5625 L498.9302,613.5625 L498.9302,620.5625 L488.9302,630.5625 L433.9302,630.5625 L433.9302,613.5625" fill="#EEEEEE" style="stroke:#000000;stroke-width:2;"/><text fill="#000000" font-family="sans-serif" font-size="13" font-weight="bold" lengthAdjust="spacing" textLength="20.8838" x="446.9302" y="627.6294">ref</text><text fill="#000000" font-family="sans-serif" font-size="12" font-style="italic" lengthAdjust="spacing" textLength="182.625" x="450.3716" y="645.7012">Manage Reservation Use Case</text><text fill="#000000" font-family="sans-serif" font-size="12" lengthAdjust="spacing" textLength="197.5078" x="442.9302" y="659.6699">(Media Owner approves request)</text><g class="message" data-entity-1="part2" data-entity-2="part1" id="msg6"><polygon fill="#181818" points="70.0801,688.7656,60.0801,692.7656,70.0801,696.7656,66.0801,692.7656" style="stroke:#181818;stroke-width:1;"/><line style="stroke:#181818;stroke-width:1;stroke-dasharray:2,2;" x1="64.0801" x2="469.0332" y1="692.7656" y2="692.7656"/><text fill="#000000" font-family="sans-serif" font-size="13" lengthAdjust="spacing" textLength="131.6313" x="76.0801" y="687.6997">approvalNotification</text></g><g class="message" data-entity-1="part1" data-entity-2="part2" id="msg7"><polygon fill="#181818" points="458.0332,717.8984,468.0332,721.8984,458.0332,725.8984,462.0332,721.8984" style="stroke:#181818;stroke-width:1;"/><line style="stroke:#181818;stroke-width:1;" x1="59.0801" x2="464.0332" y1="721.8984" y2="721.8984"/><text fill="#000000" font-family="sans-serif" font-size="13" lengthAdjust="spacing" textLength="194.7905" x="66.0801" y="716.8325">submitPayment(paymentInfo)</text></g><path d="M10,736.8984 L74.4429,736.8984 L74.4429,744.0313 L64.4429,754.0313 L10,754.0313 L10,736.8984" fill="#EEEEEE" style="stroke:#000000;stroke-width:1.5;"/><rect fill="none" height="90.2031" style="stroke:#000000;stroke-width:1.5;" width="503.1362" x="10" y="736.8984"/><text fill="#000000" font-family="sans-serif" font-size="13" font-weight="bold" lengthAdjust="spacing" textLength="19.4429" x="25" y="749.9653">alt</text><text fill="#000000" font-family="sans-serif" font-size="11" font-weight="bold" lengthAdjust="spacing" textLength="125.313" x="89.4429" y="749.1089">[Payment succeeds]</text><g class="message" data-entity-1="part2" data-entity-2="part1" id="msg8"><polygon fill="#181818" points="70.0801,771.1641,60.0801,775.1641,70.0801,779.1641,66.0801,775.1641" style="stroke:#181818;stroke-width:1;"/><line style="stroke:#181818;stroke-width:1;stroke-dasharray:2,2;" x1="64.0801" x2="469.0332" y1="775.1641" y2="775.1641"/><text fill="#000000" font-family="sans-serif" font-size="13" lengthAdjust="spacing" textLength="142.2446" x="76.0801" y="770.0981">paymentConfirmation</text></g><line style="stroke:#000000;stroke-width:1;stroke-dasharray:2,2;" x1="10" x2="513.1362" y1="784.1641" y2="784.1641"/><text fill="#000000" font-family="sans-serif" font-size="11" font-weight="bold" lengthAdjust="spacing" textLength="94.8481" x="15" y="794.3745">[Payment fails]</text><g class="message" data-entity-1="part2" data-entity-2="part1" id="msg9"><polygon fill="#181818" points="70.0801,815.1016,60.0801,819.1016,70.0801,823.1016,66.0801,819.1016" style="stroke:#181818;stroke-width:1;"/><line style="stroke:#181818;stroke-width:1;stroke-dasharray:2,2;" x1="64.0801" x2="469.0332" y1="819.1016" y2="819.1016"/><text fill="#000000" font-family="sans-serif" font-size="13" lengthAdjust="spacing" textLength="90.1113" x="76.0801" y="814.0356">paymentError</text></g><path d="M475,839.1016 L475,924.1016 L701,924.1016 L701,849.1016 L691,839.1016 L475,839.1016" fill="#FEFFDD" style="stroke:#181818;stroke-width:0.5;"/><path d="M691,839.1016 L691,849.1016 L701,849.1016 L691,839.1016" fill="#FEFFDD" style="stroke:#181818;stroke-width:0.5;"/><text fill="#000000" font-family="sans-serif" font-size="13" lengthAdjust="spacing" textLength="205.7847" x="481" y="856.1685">paymentConfirmation contains:</text><text fill="#000000" font-family="sans-serif" font-size="13" lengthAdjust="spacing" textLength="94.9292" x="481" y="871.3013">- reservationId</text><text fill="#000000" font-family="sans-serif" font-size="13" lengthAdjust="spacing" textLength="135.751" x="481" y="886.4341">- campaignStartDate</text><text fill="#000000" font-family="sans-serif" font-size="13" lengthAdjust="spacing" textLength="128.6987" x="481" y="901.5669">- campaignEndDate</text><text fill="#000000" font-family="sans-serif" font-size="13" lengthAdjust="spacing" textLength="89.7622" x="481" y="916.6997">- activeStatus</text><?plantuml-src ZLHDZzem4BtdLups11BitbS8YGAgE2oD5hMdNempWP4IEsjFWjXVtucJa52MKWx1uvbvRpwUpCGPmgoSxywUCOSTVfHeDCAArC6fVFPIpd-RHLAXO_Be82xt6VaZB19OghnGT31Hf3HR1trKL2WvQ2gKOMYGsvYdDqn8mO-JGVS4oaEmWnb53bEmWj6cJ8Q88ByPpRyvU_BOPC5FEIsLnzaBpICq2GX050sAdSvRg5TnoKM58N6KrzzDCW6LT4tKbcSfUwKO9o1ezM5yKrHNo2-LKI8HK8V1ebAKgJrbnEVhQXwbzzM6lDQzAFbe7Nqg9ckk0LN6q6QB3tofDMBYGsQxnAdqtUDslOVu5R9KwYFCP7O3c3JS_WEZkiIkdREkhYUAZ9KE71sE33RjExpb0ssD78n_5VTKnXuxh0XFmMBBAeiTQGncMCwbJccxPhctLi5DoUNlFUD8TlPu3h40apdSRM402DgXR2g14_4HulLsjTb-hxN2fN-Mq86YGHM5ip8geVeeoM7oFEZWHju3xRTxVrD67V2A_KhaTTZebX1z84JFurueTuRGbRYrJ2dfG79lkhxSvyInEkTeU5Gq_nkJsd6ZmzRpNo9iivVDmXhQeC8EvA44MuJ7-lk2wYy13fImISADRj-1NVS6NDskc-UW4Qzcgd0Nzd_PxXy0?></g></svg>