<?plantuml 1.2026.2beta3?><svg xmlns="http://www.w3.org/2000/svg" xmlns:xlink="http://www.w3.org/1999/xlink" contentStyleType="text/css" data-diagram-type="STATE" height="435px" preserveAspectRatio="none" style="width:808px;height:435px;background:#FFFFFF;" version="1.1" viewBox="0 0 808 435" width="808px" zoomAndPan="magnify"><title>&lt;u&gt;State Transition Diagram&lt;/u&gt;
Reservation Status</title><defs/><g><g class="title" data-source-line="1"><text fill="#000000" font-family="sans-serif" font-size="14" font-weight="bold" lengthAdjust="spacing" text-decoration="underline" textLength="199.0625" x="297.8638" y="22.9951">State Transition Diagram</text><text fill="#000000" font-family="sans-serif" font-size="14" font-weight="bold" lengthAdjust="spacing" textLength="150.7461" x="322.022" y="39.292">Reservation Status</text></g><g class="entity" data-qualified-name="PENDING" id="ent0002"><rect fill="#F1F1F1" height="50.2656" rx="12.5" ry="12.5" style="stroke:#181818;stroke-width:0.5;" width="374.791" x="345" y="60.5938"/><line style="stroke:#181818;stroke-width:0.5;" x1="345" x2="719.791" y1="86.8906" y2="86.8906"/><text fill="#000000" font-family="sans-serif" font-size="14" lengthAdjust="spacing" textLength="63.9912" x="500.3999" y="78.5889">PENDING</text><text fill="#000000" font-family="sans-serif" font-size="12" lengthAdjust="spacing" textLength="354.791" x="350" y="103.0293">Reservation is created and awaiting media owner approval</text></g><g class="entity" data-qualified-name="APPROVED" id="ent0003"><rect fill="#F1F1F1" height="50.2656" rx="12.5" ry="12.5" style="stroke:#181818;stroke-width:0.5;" width="335.4629" x="364.66" y="262.5938"/><line style="stroke:#181818;stroke-width:0.5;" x1="364.66" x2="700.1229" y1="288.8906" y2="288.8906"/><text fill="#000000" font-family="sans-serif" font-size="14" lengthAdjust="spacing" textLength="76.4121" x="494.1854" y="280.5889">APPROVED</text><text fill="#000000" font-family="sans-serif" font-size="12" lengthAdjust="spacing" textLength="315.4629" x="369.66" y="305.0293">Reservation has been approved by the media owner</text></g><g class="entity" data-qualified-name="DENIED" id="ent0004"><rect fill="#F1F1F1" height="50.2656" rx="12.5" ry="12.5" style="stroke:#181818;stroke-width:0.5;" width="319.4375" x="372.68" y="177.5937"/><line style="stroke:#181818;stroke-width:0.5;" x1="372.68" x2="692.1175" y1="203.8906" y2="203.8906"/><text fill="#000000" font-family="sans-serif" font-size="14" lengthAdjust="spacing" textLength="53.8535" x="505.472" y="195.5889">DENIED</text><text fill="#000000" font-family="sans-serif" font-size="12" lengthAdjust="spacing" textLength="299.4375" x="377.68" y="220.0293">Reservation has been denied by the media owner</text></g><g class="entity" data-qualified-name="CONFIRMED" id="ent0005"><rect fill="#F1F1F1" height="50.2656" rx="12.5" ry="12.5" style="stroke:#181818;stroke-width:0.5;" width="284.627" x="390.08" y="379.5938"/><line style="stroke:#181818;stroke-width:0.5;" x1="390.08" x2="674.707" y1="405.8906" y2="405.8906"/><text fill="#000000" font-family="sans-serif" font-size="14" lengthAdjust="spacing" textLength="84.8818" x="489.9526" y="397.5889">CONFIRMED</text><text fill="#000000" font-family="sans-serif" font-size="12" lengthAdjust="spacing" textLength="264.627" x="395.08" y="422.0293">Reservation has been paid and is confirmed</text></g><g class="start_entity" data-qualified-name=".start." data-source-line="4" id="ent0002"><ellipse cx="16" cy="85.7337" fill="#222222" rx="10" ry="10" style="stroke:#222222;stroke-width:1;"/></g><g class="end_entity" data-qualified-name=".end." data-source-line="14" id="ent0007"><ellipse cx="791.79" cy="304.7338" fill="none" rx="11" ry="11" style="stroke:#222222;stroke-width:1;"/><ellipse cx="791.79" cy="304.7338" fill="#222222" rx="6" ry="6" style="stroke:#222222;stroke-width:1;"/></g><!--link *start* to PENDING--><g class="link" data-entity-1="ent0002" data-entity-2="ent0002" data-link-type="dependency" data-source-line="4" id="lnk3"><path d="M26.37,85.7337 C65.21,85.7337 211.53,85.7337 338.83,85.7337" fill="none" id="*start*-to-PENDING" style="stroke:#181818;stroke-width:1;"/><polygon fill="#181818" points="344.83,85.7337,335.83,81.7337,339.83,85.7337,335.83,89.7337,344.83,85.7337" style="stroke:#181818;stroke-width:1;"/></g><!--link PENDING to APPROVED--><g class="link" data-entity-1="ent0002" data-entity-2="ent0003" data-link-type="dependency" data-source-line="10" id="lnk4"><path d="M344.75,74.2838 C260.87,80.0238 168.72,103.5537 113.82,170.7338 C38.01,263.4738 211.1821,286.0359 358.2521,289.9059" fill="none" id="PENDING-to-APPROVED" style="stroke:#181818;stroke-width:1;"/><polygon fill="#181818" points="364.25,290.0637,355.3583,285.8284,359.2517,289.9322,355.1479,293.8256,364.25,290.0637" style="stroke:#181818;stroke-width:1;"/><text fill="#000000" font-family="sans-serif" font-size="13" lengthAdjust="spacing" textLength="206.356" x="82.8191" y="183.8006">Manage Reservation Use Case /</text><text fill="#000000" font-family="sans-serif" font-size="13" lengthAdjust="spacing" textLength="257.9941" x="57" y="198.9335">updateReservationStatus("APPROVED")</text></g><!--link APPROVED to CONFIRMED--><g class="link" data-entity-1="ent0003" data-entity-2="ent0005" data-link-type="dependency" data-source-line="11" id="lnk5"><path d="M532.4,313.0637 C532.4,332.6838 532.4,353.7238 532.4,373.3438" fill="none" id="APPROVED-to-CONFIRMED" style="stroke:#181818;stroke-width:1;"/><polygon fill="#181818" points="532.4,379.3438,536.4,370.3438,532.4,374.3438,528.4,370.3438,532.4,379.3438" style="stroke:#181818;stroke-width:1;"/><text fill="#000000" font-family="sans-serif" font-size="13" lengthAdjust="spacing" textLength="239.5034" x="394.0777" y="343.3006">Payment Completed (via Webhook) /</text><text fill="#000000" font-family="sans-serif" font-size="13" lengthAdjust="spacing" textLength="265.8589" x="380.9" y="358.4335">updateReservationStatus("CONFIRMED")</text></g><!--link PENDING to DENIED--><g class="link" data-entity-1="ent0002" data-entity-2="ent0004" data-link-type="dependency" data-source-line="12" id="lnk6"><path d="M532.4,111.0637 C532.4,130.6837 532.4,151.7238 532.4,171.3437" fill="none" id="PENDING-to-DENIED" style="stroke:#181818;stroke-width:1;"/><polygon fill="#181818" points="532.4,177.3437,536.4,168.3437,532.4,172.3437,528.4,168.3437,532.4,177.3437" style="stroke:#181818;stroke-width:1;"/><text fill="#000000" font-family="sans-serif" font-size="13" lengthAdjust="spacing" textLength="206.356" x="410.2455" y="141.3006">Manage Reservation Use Case /</text><text fill="#000000" font-family="sans-serif" font-size="13" lengthAdjust="spacing" textLength="237.0469" x="394.9" y="156.4335">updateReservationStatus("DENIED")</text></g><!--link CONFIRMED to *end*--><g class="link" data-entity-1="ent0005" data-entity-2="ent0007" data-link-type="dependency" data-source-line="14" id="lnk8"><path d="M599.35,379.1038 C662.2,354.6838 745.9072,322.1663 775.3572,310.7263" fill="none" id="CONFIRMED-to-*end*" style="stroke:#181818;stroke-width:1;"/><polygon fill="#181818" points="780.95,308.5538,771.1123,308.084,776.2893,310.3642,774.0091,315.5412,780.95,308.5538" style="stroke:#181818;stroke-width:1;"/></g><!--link DENIED to *end*--><g class="link" data-entity-1="ent0004" data-entity-2="ent0007" data-link-type="dependency" data-source-line="15" id="lnk9"><path d="M678.77,228.2238 C692.96,232.8437 706.87,238.3037 719.79,244.7338 C746.67,258.1038 767.9335,279.2746 779.7635,292.2846" fill="none" id="DENIED-to-*end*" style="stroke:#181818;stroke-width:1;"/><polygon fill="#181818" points="783.8,296.7238,780.7046,287.374,780.4362,293.0244,774.7857,292.756,783.8,296.7238" style="stroke:#181818;stroke-width:1;"/></g><?plantuml-src dP9DRuCm38Rl-HLMJ-saglUfGfeAcpYK8lPrM7SmnOLeaA0GMlNVpmpAichTOOSaYcm_VlqcLjgIODbwZnOjmPD1rKWhjG9VOcwmMYvQRwiIQiWSy2lGPRQDA6blmMemCYyiPDBGhWiByNRp3lEv1t4G-M7q88OJRi6bo0PsXhXd1gXu7P7RgXmgoYI2FYeoW7Ljz05BSHV7oUOby2yO1JQG4gaXaL7f2Mn1BaJuGHHUhyn8oT_hLfleFapMrqjhbBtsRXIjzj9mkHZ7PGSSsMjKcDCFq7D3i4BU5blLrXbRuKHxawUJCs8o-pQ1oQwu64yLAGihNTKbTOPE3pp5AwM5rX-pF_4ZX_cEyD6p_yhk0GnrREp-1F-DyuCCrqy0?></g></svg>