<?plantuml 1.2026.2beta3?><svg xmlns="http://www.w3.org/2000/svg" xmlns:xlink="http://www.w3.org/1999/xlink" contentStyleType="text/css" data-diagram-type="STATE" height="356px" preserveAspectRatio="none" style="width:1147px;height:356px;background:#FFFFFF;" version="1.1" viewBox="0 0 1147 356" width="1147px" zoomAndPan="magnify"><title>&lt;u&gt;State Transition Diagram&lt;/u&gt;
Reservation Status</title><defs/><g><g class="title" data-source-line="1"><text fill="#000000" font-family="sans-serif" font-size="14" font-weight="bold" lengthAdjust="spacing" text-decoration="underline" textLength="199.0625" x="467.0825" y="22.9951">State Transition Diagram</text><text fill="#000000" font-family="sans-serif" font-size="14" font-weight="bold" lengthAdjust="spacing" textLength="150.7461" x="491.2407" y="39.292">Reservation Status</text></g><g class="entity" data-qualified-name="PENDING" id="ent0002"><rect fill="#F1F1F1" height="50.2656" rx="12.5" ry="12.5" style="stroke:#181818;stroke-width:0.5;" width="374.791" x="147" y="66.0197"/><line style="stroke:#181818;stroke-width:0.5;" x1="147" x2="521.791" y1="92.3165" y2="92.3165"/><text fill="#000000" font-family="sans-serif" font-size="14" lengthAdjust="spacing" textLength="63.9912" x="302.3999" y="84.0148">PENDING</text><text fill="#000000" font-family="sans-serif" font-size="12" lengthAdjust="spacing" textLength="354.791" x="152" y="108.4552">Reservation is created and awaiting media owner approval</text></g><g class="entity" data-qualified-name="APPROVED" id="ent0003"><rect fill="#F1F1F1" height="50.2656" rx="12.5" ry="12.5" style="stroke:#181818;stroke-width:0.5;" width="335.4629" x="166.66" y="183.0197"/><line style="stroke:#181818;stroke-width:0.5;" x1="166.66" x2="502.1229" y1="209.3165" y2="209.3165"/><text fill="#000000" font-family="sans-serif" font-size="14" lengthAdjust="spacing" textLength="76.4121" x="296.1854" y="201.0148">APPROVED</text><text fill="#000000" font-family="sans-serif" font-size="12" lengthAdjust="spacing" textLength="315.4629" x="171.66" y="225.4552">Reservation has been approved by the media owner</text></g><g class="entity" data-qualified-name="DENIED" id="ent0004"><rect fill="#F1F1F1" height="50.2656" rx="12.5" ry="12.5" style="stroke:#181818;stroke-width:0.5;" width="319.4375" x="820.79" y="68.0197"/><line style="stroke:#181818;stroke-width:0.5;" x1="820.79" x2="1140.2275" y1="94.3165" y2="94.3165"/><text fill="#000000" font-family="sans-serif" font-size="14" lengthAdjust="spacing" textLength="53.8535" x="953.582" y="86.0148">DENIED</text><text fill="#000000" font-family="sans-serif" font-size="12" lengthAdjust="spacing" textLength="299.4375" x="825.79" y="110.4552">Reservation has been denied by the media owner</text></g><g class="entity" data-qualified-name="CONFIRMED" id="ent0005"><rect fill="#F1F1F1" height="50.2656" rx="12.5" ry="12.5" style="stroke:#181818;stroke-width:0.5;" width="284.627" x="192.08" y="300.0197"/><line style="stroke:#181818;stroke-width:0.5;" x1="192.08" x2="476.707" y1="326.3165" y2="326.3165"/><text fill="#000000" font-family="sans-serif" font-size="14" lengthAdjust="spacing" textLength="84.8818" x="291.9526" y="318.0148">CONFIRMED</text><text fill="#000000" font-family="sans-serif" font-size="12" lengthAdjust="spacing" textLength="264.627" x="197.08" y="342.4552">Reservation has been paid and is confirmed</text></g><g class="start_entity" data-qualified-name=".start." data-source-line="4" id="ent0002"><ellipse cx="16" cy="91.1597" fill="#222222" rx="10" ry="10" style="stroke:#222222;stroke-width:1;"/></g><g class="end_entity" data-qualified-name=".end." data-source-line="14" id="ent0007"><ellipse cx="980.51" cy="194.1597" fill="none" rx="11" ry="11" style="stroke:#222222;stroke-width:1;"/><ellipse cx="980.51" cy="194.1597" fill="#222222" rx="6" ry="6" style="stroke:#222222;stroke-width:1;"/></g><!--link *start* to PENDING--><g class="link" data-entity-1="ent0002" data-entity-2="ent0002" data-link-type="dependency" data-source-line="4" id="lnk3"><path d="M26.47,91.1597 C46.21,91.1597 88.31,91.1597 140.72,91.1597" fill="none" id="*start*-to-PENDING" style="stroke:#181818;stroke-width:1;"/><polygon fill="#181818" points="146.72,91.1597,137.72,87.1597,141.72,91.1597,137.72,95.1597,146.72,91.1597" style="stroke:#181818;stroke-width:1;"/><text fill="#000000" font-family="sans-serif" font-size="13" lengthAdjust="spacing" textLength="59.9473" x="57" y="87.2266">created()</text></g><!--link PENDING to APPROVED--><g class="link" data-entity-1="ent0002" data-entity-2="ent0003" data-link-type="dependency" data-source-line="10" id="lnk4"><path d="M334.4,116.4897 C334.4,136.1097 334.4,157.1497 334.4,176.7697" fill="none" id="PENDING-to-APPROVED" style="stroke:#181818;stroke-width:1;"/><polygon fill="#181818" points="334.4,182.7697,338.4,173.7697,334.4,177.7697,330.4,173.7697,334.4,182.7697" style="stroke:#181818;stroke-width:1;"/><text fill="#000000" font-family="sans-serif" font-size="13" lengthAdjust="spacing" textLength="172.1548" x="229.8197" y="146.7266">UC- Approve Reservation /</text><text fill="#000000" font-family="sans-serif" font-size="13" lengthAdjust="spacing" textLength="257.9941" x="186.9" y="161.8594">updateReservationStatus("APPROVED")</text></g><!--link PENDING to DENIED--><g class="link" data-entity-1="ent0002" data-entity-2="ent0004" data-link-type="dependency" data-source-line="11" id="lnk5"><path d="M522.13,91.7397 C616.68,92.0297 724.24,92.3611 814.55,92.6411" fill="none" id="PENDING-to-DENIED" style="stroke:#181818;stroke-width:1;"/><polygon fill="#181818" points="820.55,92.6597,811.5624,88.6318,815.55,92.6442,811.5376,96.6317,820.55,92.6597" style="stroke:#181818;stroke-width:1;"/><text fill="#000000" font-family="sans-serif" font-size="13" lengthAdjust="spacing" textLength="151.709" x="595.4589" y="73.2266">UC- Deny Reservation /</text><text fill="#000000" font-family="sans-serif" font-size="13" lengthAdjust="spacing" textLength="237.0469" x="552.79" y="88.3594">updateReservationStatus("DENIED")</text></g><!--link APPROVED to CONFIRMED--><g class="link" data-entity-1="ent0003" data-entity-2="ent0005" data-link-type="dependency" data-source-line="12" id="lnk6"><path d="M334.4,233.4897 C334.4,253.1097 334.4,274.1497 334.4,293.7697" fill="none" id="APPROVED-to-CONFIRMED" style="stroke:#181818;stroke-width:1;"/><polygon fill="#181818" points="334.4,299.7697,338.4,290.7697,334.4,294.7697,330.4,290.7697,334.4,299.7697" style="stroke:#181818;stroke-width:1;"/><text fill="#000000" font-family="sans-serif" font-size="13" lengthAdjust="spacing" textLength="239.5034" x="196.0777" y="263.7266">Payment Completed (via Webhook) /</text><text fill="#000000" font-family="sans-serif" font-size="13" lengthAdjust="spacing" textLength="265.8589" x="182.9" y="278.8594">updateReservationStatus("CONFIRMED")</text></g><!--link PENDING to *end*--><g class="link" data-entity-1="ent0002" data-entity-2="ent0007" data-link-type="dependency" data-source-line="14" id="lnk8"><path d="M420.55,116.7597 C460.14,127.8397 508.05,140.0897 551.79,148.1597 C716.68,178.5597 915.3088,190.6943 963.1788,193.2943" fill="none" id="PENDING-to-*end*" style="stroke:#181818;stroke-width:1;"/><polygon fill="#181818" points="969.17,193.6197,960.4002,189.1375,964.1774,193.3485,959.9663,197.1257,969.17,193.6197" style="stroke:#181818;stroke-width:1;"/><text fill="#000000" font-family="sans-serif" font-size="13" lengthAdjust="spacing" textLength="202.3887" x="568.29" y="114.2266">Reservation never approved or</text><text fill="#000000" font-family="sans-serif" font-size="13" lengthAdjust="spacing" textLength="179.7148" x="581.6931" y="129.3594">denied and reservation end</text><text fill="#000000" font-family="sans-serif" font-size="13" lengthAdjust="spacing" textLength="93.9771" x="626.6281" y="144.4922">date is passed</text></g><!--link APPROVED to *end*--><g class="link" data-entity-1="ent0003" data-entity-2="ent0007" data-link-type="dependency" data-source-line="15" id="lnk9"><path d="M489.65,233.7897 C510.48,236.4197 531.62,238.6697 551.79,240.1597 C657.73,247.9497 685.33,252.8297 790.79,240.1597 C860.77,231.7497 936.5674,208.2754 964.1374,199.2554" fill="none" id="APPROVED-to-*end*" style="stroke:#181818;stroke-width:1;"/><polygon fill="#181818" points="969.84,197.3897,960.0424,196.3865,965.0879,198.9444,962.53,203.9899,969.84,197.3897" style="stroke:#181818;stroke-width:1;"/><text fill="#000000" font-family="sans-serif" font-size="13" lengthAdjust="spacing" textLength="173.3354" x="584.79" y="206.2266">Reservation never paid for</text><text fill="#000000" font-family="sans-serif" font-size="13" lengthAdjust="spacing" textLength="131.2314" x="607.9082" y="221.3594">and reservation end</text><text fill="#000000" font-family="sans-serif" font-size="13" lengthAdjust="spacing" textLength="93.9771" x="626.5354" y="236.4922">date is passed</text></g><!--link DENIED to *end*--><g class="link" data-entity-1="ent0004" data-entity-2="ent0007" data-link-type="dependency" data-source-line="16" id="lnk10"><path d="M980.51,118.6997 C980.51,140.0397 980.51,155.3797 980.51,176.7197" fill="none" id="DENIED-to-*end*" style="stroke:#181818;stroke-width:1;"/><polygon fill="#181818" points="980.51,182.7197,984.51,173.7197,980.51,177.7197,976.51,173.7197,980.51,182.7197" style="stroke:#181818;stroke-width:1;"/></g><!--link CONFIRMED to *end*--><g class="link" data-entity-1="ent0005" data-entity-2="ent0007" data-link-type="dependency" data-source-line="17" id="lnk11"><path d="M477.09,309.8797 C567.56,298.5997 686.95,280.8997 790.79,256.1597 C860.91,239.4497 936.7296,210.8786 964.2596,200.1486" fill="none" id="CONFIRMED-to-*end*" style="stroke:#181818;stroke-width:1;"/><polygon fill="#181818" points="969.85,197.9697,960.0118,197.5111,965.1913,199.7854,962.917,204.9649,969.85,197.9697" style="stroke:#181818;stroke-width:1;"/></g><?plantuml-src ZPBDRi8m48JlVeeL9wY4k5S82H5QSMY8wD-XwS6GXLXDrf7Z1F7sNPCGJ5KGXroSdS-pCxRAPWZZQl9gfKLuCv9APPKc29JS6PcFHzKafXMMQ6fv_E4cgr9akBLWDHYrIoqaok36_HRYw-4RXiC9HFCmM8JFy0WRWmnF-WDnFlE9gZoDW2J-zf8jq0voJ9G4lISq88l2w5fcOXf5g-N7FFZ3I6K9QqHg1ncrFe1DqOU8O1ukhYiJ9FM_RhOCdnQhb-lIGgh6krj5qrOPbejkNKx3i_q-6yAqSNb16yLK5Gd7u1qsOVTx9tdldA7Bk5l8CGEamzt0HicupXZZ_3qZUSYHBCnqNcJekkdN7CWdhbEjVmOtuHs7-HT-tTkuZ92mxjhbExI1cDeYN9x66qLAOcx9lLEEkP1boHcVxT_07-lPQiFokw1jh0tHQx-zunS0?></g></svg>