<svg xmlns="http://www.w3.org/2000/svg" xmlns:xlink="http://www.w3.org/1999/xlink" contentStyleType="text/css" data-diagram-type="SEQUENCE" height="539px" preserveAspectRatio="none" style="width:674px;height:539px;background:#FFFFFF;" version="1.1" viewBox="0 0 674 539" width="674px" zoomAndPan="magnify"><title>Publish Ad</title><defs/><g><text fill="#000000" font-family="sans-serif" font-size="14" font-weight="bold" lengthAdjust="spacing" textLength="83.877" x="296.8716" y="27.9951">Publish Ad</text><g><title>Advertiser</title><rect fill="#000000" fill-opacity="0.00000" height="340.4609" width="8" x="40.0801" y="118.5938"/><line style="stroke:#181818;stroke-width:0.5;stroke-dasharray:5,5;" x1="44" x2="44" y1="118.5938" y2="459.0547"/></g><g><title>__.System__</title><rect fill="#000000" fill-opacity="0.00000" height="340.4609" width="8" x="387.2202" y="118.5938"/><line style="stroke:#181818;stroke-width:0.5;stroke-dasharray:5,5;" x1="390.7588" x2="390.7588" y1="118.5938" y2="459.0547"/></g><g><title>Media Owner</title><rect fill="#000000" fill-opacity="0.00000" height="340.4609" width="8" x="620.5151" y="118.5938"/><line style="stroke:#181818;stroke-width:0.5;stroke-dasharray:5,5;" x1="624.4102" x2="624.4102" y1="118.5938" y2="459.0547"/></g><g class="participant participant-head" data-participant="Advertiser"><text fill="#000000" font-family="sans-serif" font-size="14" lengthAdjust="spacing" textLength="72.1602" x="5" y="115.292">Advertiser</text><ellipse cx="44.0801" cy="50.7969" fill="#E2E2F0" rx="8" ry="8" style="stroke:#181818;stroke-width:0.5;"/><path d="M44.0801,58.7969 L44.0801,85.7969 M31.0801,66.7969 L57.0801,66.7969 M44.0801,85.7969 L31.0801,100.7969 M44.0801,85.7969 L57.0801,100.7969" fill="none" style="stroke:#181818;stroke-width:0.5;"/></g><g class="participant participant-tail" data-participant="Advertiser"><text fill="#000000" font-family="sans-serif" font-size="14" lengthAdjust="spacing" textLength="72.1602" x="5" y="471.0498">Advertiser</text><ellipse cx="44.0801" cy="482.8516" fill="#E2E2F0" rx="8" ry="8" style="stroke:#181818;stroke-width:0.5;"/><path d="M44.0801,490.8516 L44.0801,517.8516 M31.0801,498.8516 L57.0801,498.8516 M44.0801,517.8516 L31.0801,532.8516 M44.0801,517.8516 L57.0801,532.8516" fill="none" style="stroke:#181818;stroke-width:0.5;"/></g><g class="participant participant-head" data-participant="System"><rect fill="#E2E2F0" height="30.2969" rx="2.5" ry="2.5" style="stroke:#181818;stroke-width:0.5;" width="70.9229" x="355.7588" y="87.2969"/><text fill="#000000" font-family="sans-serif" font-size="14" lengthAdjust="spacing" text-decoration="underline" textLength="56.9229" x="362.7588" y="107.292">:System</text></g><g class="participant participant-tail" data-participant="System"><rect fill="#E2E2F0" height="30.2969" rx="2.5" ry="2.5" style="stroke:#181818;stroke-width:0.5;" width="70.9229" x="355.7588" y="458.0547"/><text fill="#000000" font-family="sans-serif" font-size="14" lengthAdjust="spacing" text-decoration="underline" textLength="56.9229" x="362.7588" y="478.0498">:System</text></g><g class="participant participant-head" data-participant="MediaOwner"><text fill="#000000" font-family="sans-serif" font-size="14" lengthAdjust="spacing" textLength="92.21" x="575.4102" y="115.292">Media Owner</text><ellipse cx="624.5151" cy="50.7969" fill="#E2E2F0" rx="8" ry="8" style="stroke:#181818;stroke-width:0.5;"/><path d="M624.5151,58.7969 L624.5151,85.7969 M611.5151,66.7969 L637.5151,66.7969 M624.5151,85.7969 L611.5151,100.7969 M624.5151,85.7969 L637.5151,100.7969" fill="none" style="stroke:#181818;stroke-width:0.5;"/></g><g class="participant participant-tail" data-participant="MediaOwner"><text fill="#000000" font-family="sans-serif" font-size="14" lengthAdjust="spacing" textLength="92.21" x="575.4102" y="471.0498">Media Owner</text><ellipse cx="624.5151" cy="482.8516" fill="#E2E2F0" rx="8" ry="8" style="stroke:#181818;stroke-width:0.5;"/><path d="M624.5151,490.8516 L624.5151,517.8516 M611.5151,498.8516 L637.5151,498.8516 M624.5151,517.8516 L611.5151,532.8516 M624.5151,517.8516 L637.5151,532.8516" fill="none" style="stroke:#181818;stroke-width:0.5;"/></g><g class="message" data-participant-1="Advertiser" data-participant-2="System"><polygon fill="#181818" points="379.2202,145.7266,389.2202,149.7266,379.2202,153.7266,383.2202,149.7266" style="stroke:#181818;stroke-width:1;"/><line style="stroke:#181818;stroke-width:1;" x1="44.0801" x2="385.2202" y1="149.7266" y2="149.7266"/><text fill="#000000" font-family="sans-serif" font-size="13" lengthAdjust="spacing" textLength="70.5352" x="51.0801" y="144.6606">getMedia()</text></g><g class="message" data-participant-1="System" data-participant-2="Advertiser"><polygon fill="#181818" points="55.0801,174.8594,45.0801,178.8594,55.0801,182.8594,51.0801,178.8594" style="stroke:#181818;stroke-width:1;"/><line style="stroke:#181818;stroke-width:1;stroke-dasharray:2,2;" x1="49.0801" x2="390.2202" y1="178.8594" y2="178.8594"/><text fill="#000000" font-family="sans-serif" font-size="13" lengthAdjust="spacing" textLength="140.4165" x="61.0801" y="173.7935">displayMediaDetails()</text></g><g class="message" data-participant-1="Advertiser" data-participant-2="System"><polygon fill="#181818" points="379.2202,203.9922,389.2202,207.9922,379.2202,211.9922,383.2202,207.9922" style="stroke:#181818;stroke-width:1;"/><line style="stroke:#181818;stroke-width:1;" x1="44.0801" x2="385.2202" y1="207.9922" y2="207.9922"/><text fill="#000000" font-family="sans-serif" font-size="13" lengthAdjust="spacing" textLength="98.3379" x="51.0801" y="202.9263">reserveMedia()</text></g><g class="message" data-participant-1="System" data-participant-2="Advertiser"><polygon fill="#181818" points="55.0801,233.125,45.0801,237.125,55.0801,241.125,51.0801,237.125" style="stroke:#181818;stroke-width:1;"/><line style="stroke:#181818;stroke-width:1;stroke-dasharray:2,2;" x1="49.0801" x2="390.2202" y1="237.125" y2="237.125"/><text fill="#000000" font-family="sans-serif" font-size="13" lengthAdjust="spacing" textLength="160.4497" x="61.0801" y="232.0591">showReservationModal()</text></g><g class="message" data-participant-1="Advertiser" data-participant-2="System"><polygon fill="#181818" points="379.2202,262.2578,389.2202,266.2578,379.2202,270.2578,383.2202,266.2578" style="stroke:#181818;stroke-width:1;"/><line style="stroke:#181818;stroke-width:1;" x1="44.0801" x2="385.2202" y1="266.2578" y2="266.2578"/><text fill="#000000" font-family="sans-serif" font-size="13" lengthAdjust="spacing" textLength="323.1401" x="51.0801" y="261.1919">submitAd(mediaId, adImage, startDate, endDate)</text></g><g class="message" data-participant-1="System" data-participant-2="Advertiser"><polygon fill="#181818" points="55.0801,291.3906,45.0801,295.3906,55.0801,299.3906,51.0801,295.3906" style="stroke:#181818;stroke-width:1;"/><line style="stroke:#181818;stroke-width:1;stroke-dasharray:2,2;" x1="49.0801" x2="390.2202" y1="295.3906" y2="295.3906"/><text fill="#000000" font-family="sans-serif" font-size="13" lengthAdjust="spacing" textLength="169.5205" x="61.0801" y="290.3247">showAdPreviewOnMedia()</text></g><g class="message" data-participant-1="Advertiser" data-participant-2="System"><polygon fill="#181818" points="379.2202,320.5234,389.2202,324.5234,379.2202,328.5234,383.2202,324.5234" style="stroke:#181818;stroke-width:1;"/><line style="stroke:#181818;stroke-width:1;" x1="44.0801" x2="385.2202" y1="324.5234" y2="324.5234"/><text fill="#000000" font-family="sans-serif" font-size="13" lengthAdjust="spacing" textLength="99.7407" x="51.0801" y="319.4575">goToPayment()</text></g><g class="message" data-participant-1="System" data-participant-2="Advertiser"><polygon fill="#181818" points="55.0801,349.6563,45.0801,353.6563,55.0801,357.6563,51.0801,353.6563" style="stroke:#181818;stroke-width:1;"/><line style="stroke:#181818;stroke-width:1;stroke-dasharray:2,2;" x1="49.0801" x2="390.2202" y1="353.6563" y2="353.6563"/><text fill="#000000" font-family="sans-serif" font-size="13" lengthAdjust="spacing" textLength="146.2183" x="61.0801" y="348.5903">showPaymentScreen()</text></g><g class="message" data-participant-1="Advertiser" data-participant-2="System"><polygon fill="#181818" points="379.2202,378.7891,389.2202,382.7891,379.2202,386.7891,383.2202,382.7891" style="stroke:#181818;stroke-width:1;"/><line style="stroke:#181818;stroke-width:1;" x1="44.0801" x2="385.2202" y1="382.7891" y2="382.7891"/><text fill="#000000" font-family="sans-serif" font-size="13" lengthAdjust="spacing" textLength="240.3667" x="51.0801" y="377.7231">confirmReservation(paymentDetails)</text></g><g class="message" data-participant-1="System" data-participant-2="Advertiser"><polygon fill="#181818" points="55.0801,407.9219,45.0801,411.9219,55.0801,415.9219,51.0801,411.9219" style="stroke:#181818;stroke-width:1;"/><line style="stroke:#181818;stroke-width:1;stroke-dasharray:2,2;" x1="49.0801" x2="390.2202" y1="411.9219" y2="411.9219"/><text fill="#000000" font-family="sans-serif" font-size="13" lengthAdjust="spacing" textLength="227.4238" x="61.0801" y="406.856">closeModalAndShowConfirmation()</text></g><g class="message" data-participant-1="System" data-participant-2="MediaOwner"><polygon fill="#181818" points="612.5151,437.0547,622.5151,441.0547,612.5151,445.0547,616.5151,441.0547" style="stroke:#181818;stroke-width:1;"/><line style="stroke:#181818;stroke-width:1;" x1="391.2202" x2="618.5151" y1="441.0547" y2="441.0547"/><text fill="#000000" font-family="sans-serif" font-size="13" lengthAdjust="spacing" textLength="209.2949" x="398.2202" y="435.9888">sendAdRequestEmail(adDetails)</text></g><!--SRC=[XPJ1RXen48Rl-nGZBWM988Mc5mwHLaqFEKH1a9wHrnx0ogwzjGsKMnwaVRayISTZBqiIaTxMk-F___wPWQ13ZJ3VLRNsMoXLKGWPh8D1gVReWlRe1Y0yzCUY5VGWTIjCWC5gDLiUVS1cjUAwTEX47b1f0Oy7arNupCUY-0BN4tZQufaqLCuUF7eGUw5hKH5Pmme45xJPq0UZm6EDCdYm1YV5sUMhs-m-Wmq6jXgEsEOwVm27mMdSauF2G1OUreGP22A9edfho7vA-xOMHyzrtRrMRCWzorwHTGyowsummbswG2I4ClsGMDPQFiSihFxwycU1z7gFhoz_eTg5OCsbZ2uLzZcdVSuJiiXb8cYoQAmIzKLglxM7HL_z48iJzjSFsDqCX06XO4XD54f5EuE7E9ZH-5IYHC0qk9POudGD_WwNKlbTrUXGgY7FuLwDIVY-eMQJOA35koErCQ1HyM74RAVKCK1a89-zZXnhRYe1vlQ-7VAdZIZLFAaycgx3P7OpWPyHk4iIHMEQ_ungOv_iN1mRD84dTVEUEUgqgG2yT8ZcKxYijUJAHFOjaz5hT1xeYz81f70Aj5bRxd_UjRmubs2bDMljchDD66QqlCeZjZibaBNjMi7xHNvyM3jBB4PTJC8NUSjAevOKwtjoJfx9PTgvL48-8- -GbNtl7VxQeG-S3Xl-OPxzvVJEjsV_FDH24YhL8jtz4QyDXUh2_GC0]--></g></svg>