<?plantuml 1.2026.1beta2?><svg xmlns="http://www.w3.org/2000/svg" xmlns:xlink="http://www.w3.org/1999/xlink" contentStyleType="text/css" data-diagram-type="SEQUENCE" height="410px" preserveAspectRatio="none" style="width:319px;height:410px;background:#FFFFFF;" version="1.1" viewBox="0 0 319 410" width="319px" zoomAndPan="magnify"><title>Browse Ad</title><defs/><g><text fill="#000000" font-family="sans-serif" font-size="14" font-weight="bold" lengthAdjust="spacing" textLength="83.6855" x="118.9944" y="27.9951">Browse Ad</text><rect fill="none" height="90.2031" style="stroke:#000000;stroke-width:1.5;" width="302.6743" x="10" y="164.7266"/><g class="participant-lifeline" data-entity-uid="part1" data-qualified-name="Advertiser" id="part1-lifeline"><g><title>Advertiser</title><rect fill="#000000" fill-opacity="0.00000" height="211.6016" width="8" x="55.0801" y="118.5938"/><line style="stroke:#181818;stroke-width:0.5;stroke-dasharray:5,5;" x1="59" x2="59" y1="118.5938" y2="330.1953"/></g></g><g class="participant-lifeline" data-entity-uid="part2" data-qualified-name="System" id="part2-lifeline"><g><title>__.System__</title><rect fill="#000000" fill-opacity="0.00000" height="211.6016" width="8" x="263.2129" y="118.5938"/><line style="stroke:#181818;stroke-width:0.5;stroke-dasharray:5,5;" x1="266.7515" x2="266.7515" y1="118.5938" y2="330.1953"/></g></g><g class="participant participant-head" data-entity-uid="part1" data-qualified-name="Advertiser" id="part1-head"><text fill="#000000" font-family="sans-serif" font-size="14" lengthAdjust="spacing" textLength="72.1602" x="20" y="115.292">Advertiser</text><ellipse cx="59.0801" cy="50.7969" fill="#E2E2F0" rx="8" ry="8" style="stroke:#181818;stroke-width:0.5;"/><path d="M59.0801,58.7969 L59.0801,85.7969 M46.0801,66.7969 L72.0801,66.7969 M59.0801,85.7969 L46.0801,100.7969 M59.0801,85.7969 L72.0801,100.7969" fill="none" style="stroke:#181818;stroke-width:0.5;"/></g><g class="participant participant-tail" data-entity-uid="part1" data-qualified-name="Advertiser" id="part1-tail"><text fill="#000000" font-family="sans-serif" font-size="14" lengthAdjust="spacing" textLength="72.1602" x="20" y="342.1904">Advertiser</text><ellipse cx="59.0801" cy="353.9922" fill="#E2E2F0" rx="8" ry="8" style="stroke:#181818;stroke-width:0.5;"/><path d="M59.0801,361.9922 L59.0801,388.9922 M46.0801,369.9922 L72.0801,369.9922 M59.0801,388.9922 L46.0801,403.9922 M59.0801,388.9922 L72.0801,403.9922" fill="none" style="stroke:#181818;stroke-width:0.5;"/></g><g class="participant participant-head" data-entity-uid="part2" data-qualified-name="System" id="part2-head"><rect fill="#E2E2F0" height="30.2969" rx="2.5" ry="2.5" style="stroke:#181818;stroke-width:0.5;" width="70.9229" x="231.7515" y="87.2969"/><text fill="#000000" font-family="sans-serif" font-size="14" lengthAdjust="spacing" text-decoration="underline" textLength="56.9229" x="238.7515" y="107.292">:System</text></g><g class="participant participant-tail" data-entity-uid="part2" data-qualified-name="System" id="part2-tail"><rect fill="#E2E2F0" height="30.2969" rx="2.5" ry="2.5" style="stroke:#181818;stroke-width:0.5;" width="70.9229" x="231.7515" y="329.1953"/><text fill="#000000" font-family="sans-serif" font-size="14" lengthAdjust="spacing" text-decoration="underline" textLength="56.9229" x="238.7515" y="349.1904">:System</text></g><g class="message" data-entity-1="part1" data-entity-2="part2" id="msg1"><polygon fill="#181818" points="255.2129,145.7266,265.2129,149.7266,255.2129,153.7266,259.2129,149.7266" style="stroke:#181818;stroke-width:1;"/><line style="stroke:#181818;stroke-width:1;" x1="59.0801" x2="261.2129" y1="149.7266" y2="149.7266"/><text fill="#000000" font-family="sans-serif" font-size="13" lengthAdjust="spacing" textLength="184.1328" x="66.0801" y="144.6606">getInventory(filters, sorting)</text></g><path d="M10,164.7266 L74.4429,164.7266 L74.4429,171.8594 L64.4429,181.8594 L10,181.8594 L10,164.7266" fill="#EEEEEE" style="stroke:#000000;stroke-width:1.5;"/><rect fill="none" height="90.2031" style="stroke:#000000;stroke-width:1.5;" width="302.6743" x="10" y="164.7266"/><text fill="#000000" font-family="sans-serif" font-size="13" font-weight="bold" lengthAdjust="spacing" textLength="19.4429" x="25" y="177.7935">alt</text><text fill="#000000" font-family="sans-serif" font-size="11" font-weight="bold" lengthAdjust="spacing" textLength="141.0181" x="89.4429" y="176.937">[screens match filters]</text><g class="message" data-entity-1="part2" data-entity-2="part1" id="msg2"><polygon fill="#181818" points="70.0801,198.9922,60.0801,202.9922,70.0801,206.9922,66.0801,202.9922" style="stroke:#181818;stroke-width:1;"/><line style="stroke:#181818;stroke-width:1;stroke-dasharray:2,2;" x1="64.0801" x2="266.2129" y1="202.9922" y2="202.9922"/><text fill="#000000" font-family="sans-serif" font-size="13" lengthAdjust="spacing" textLength="126.2358" x="76.0801" y="197.9263">sortedInventoryList</text></g><line style="stroke:#000000;stroke-width:1;stroke-dasharray:2,2;" x1="10" x2="312.6743" y1="211.9922" y2="211.9922"/><text fill="#000000" font-family="sans-serif" font-size="11" font-weight="bold" lengthAdjust="spacing" textLength="119.3887" x="15" y="222.2026">[no screens match]</text><g class="message" data-entity-1="part2" data-entity-2="part1" id="msg3"><polygon fill="#181818" points="70.0801,242.9297,60.0801,246.9297,70.0801,250.9297,66.0801,246.9297" style="stroke:#181818;stroke-width:1;"/><line style="stroke:#181818;stroke-width:1;stroke-dasharray:2,2;" x1="64.0801" x2="266.2129" y1="246.9297" y2="246.9297"/><text fill="#000000" font-family="sans-serif" font-size="13" lengthAdjust="spacing" textLength="160.856" x="76.0801" y="241.8638">noResultsFoundMessage</text></g><g class="message" data-entity-1="part1" data-entity-2="part2" id="msg4"><polygon fill="#181818" points="255.2129,279.0625,265.2129,283.0625,255.2129,287.0625,259.2129,283.0625" style="stroke:#181818;stroke-width:1;"/><line style="stroke:#181818;stroke-width:1;" x1="59.0801" x2="261.2129" y1="283.0625" y2="283.0625"/><text fill="#000000" font-family="sans-serif" font-size="13" lengthAdjust="spacing" textLength="177.125" x="66.0801" y="277.9966">getScreenDetails(screenId)</text></g><g class="message" data-entity-1="part2" data-entity-2="part1" id="msg5"><polygon fill="#181818" points="70.0801,308.1953,60.0801,312.1953,70.0801,316.1953,66.0801,312.1953" style="stroke:#181818;stroke-width:1;"/><line style="stroke:#181818;stroke-width:1;stroke-dasharray:2,2;" x1="64.0801" x2="266.2129" y1="312.1953" y2="312.1953"/><text fill="#000000" font-family="sans-serif" font-size="13" lengthAdjust="spacing" textLength="88.5688" x="76.0801" y="307.1294">screenDetails</text></g><?plantuml-src VO_1gW8n34Nt-OemAuNd3yn2K1w2yDpe1mnbUjzOgEdGHCM_jyo8emlDgYadvoOMB8BNELqLlF94hhMKkLhv2x85HQxOAKyjzQuysj0xCQwQfZxSr71gce4R6wA9vyNoyLjp1zlA1L8IRhF_40rPVrXJ8QMRb-neh6q6HFdah3to0o8kDLfuKOIJlXx6uP_Ulw16YEKQIU-oRn99U-WvccxIMVmEggu3GVoNKmw3_1VcGjJP6BNrS_gqvoj-1m00?></g></svg>